<svg width="19" height="18" viewBox="0 0 19 18" fill="none" xmlns="http://www.w3.org/2000/svg">
<g id="Vector">
<path d="M13.7908 2.25L12.731 0.876C12.5199 0.604355 12.2497 0.384312 11.941 0.232541C11.6323 0.0807686 11.293 0.00124728 10.949 0H8.05101C7.70698 0.00124728 7.36775 0.0807686 7.05901 0.232541C6.75026 0.384312 6.48011 0.604355 6.26901 0.876L5.20926 2.25H13.7908Z" fill="white"/>
<path d="M9.50001 13.5C11.1569 13.5 12.5 12.1569 12.5 10.5C12.5 8.84315 11.1569 7.50001 9.50001 7.50001C7.84315 7.50001 6.50001 8.84315 6.50001 10.5C6.50001 12.1569 7.84315 13.5 9.50001 13.5Z" fill="white"/>
<path d="M14.75 3.75001H4.25C3.2558 3.7512 2.30267 4.14667 1.59966 4.84967C0.896661 5.55267 0.501191 6.50581 0.5 7.50001V14.25C0.501191 15.2442 0.896661 16.1973 1.59966 16.9003C2.30267 17.6033 3.2558 17.9988 4.25 18H14.75C15.7442 17.9988 16.6973 17.6033 17.4003 16.9003C18.1033 16.1973 18.4988 15.2442 18.5 14.25V7.50001C18.4988 6.50581 18.1033 5.55267 17.4003 4.84967C16.6973 4.14667 15.7442 3.7512 14.75 3.75001ZM9.5 15C8.60998 15 7.73995 14.7361 6.99993 14.2416C6.25991 13.7472 5.68314 13.0443 5.34254 12.2221C5.00195 11.3998 4.91283 10.495 5.08647 9.6221C5.2601 8.74918 5.68868 7.94736 6.31802 7.31803C6.94736 6.68869 7.74918 6.26011 8.62209 6.08647C9.49501 5.91284 10.3998 6.00195 11.2221 6.34255C12.0443 6.68314 12.7471 7.25992 13.2416 7.99994C13.7361 8.73996 14 9.60999 14 10.5C13.9988 11.6931 13.5243 12.837 12.6807 13.6807C11.837 14.5243 10.6931 14.9988 9.5 15Z" fill="white"/>
</g>
</svg>
