<svg width="24" height="24" viewBox="0 0 24 24" fill="none" xmlns="http://www.w3.org/2000/svg">
<path d="M17.7208 6.64537C17.542 6.46663 17.2996 6.36621 17.0467 6.36621C16.7939 6.36621 16.5514 6.46663 16.3726 6.64537L12 11.018L7.62737 6.64537C7.44857 6.46663 7.2061 6.36621 6.95327 6.36621C6.70044 6.36621 6.45797 6.46663 6.27916 6.64537C6.10042 6.82418 6 7.06665 6 7.31948C6 7.57231 6.10042 7.81478 6.27916 7.99359L10.6518 12.3662L6.27916 16.7388C6.10042 16.9176 6 17.1601 6 17.4129C6 17.6658 6.10042 17.9082 6.27916 18.087C6.45797 18.2658 6.70044 18.3662 6.95327 18.3662C7.2061 18.3662 7.44857 18.2658 7.62737 18.087L12 13.7144L16.3726 18.087C16.5514 18.2658 16.7939 18.3662 17.0467 18.3662C17.2996 18.3662 17.542 18.2658 17.7208 18.087C17.8996 17.9082 18 17.6658 18 17.4129C18 17.1601 17.8996 16.9176 17.7208 16.7388L13.3482 12.3662L17.7208 7.99359C17.8996 7.81478 18 7.57231 18 7.31948C18 7.06665 17.8996 6.82418 17.7208 6.64537Z" fill="black"/>
</svg>
