<svg width="18" height="18" viewBox="0 0 18 18" fill="none" xmlns="http://www.w3.org/2000/svg">
<path d="M5.625 9.75C4.95749 9.75 4.30497 9.55206 3.74995 9.18121C3.19493 8.81036 2.76235 8.28326 2.50691 7.66656C2.25146 7.04986 2.18462 6.37126 2.31485 5.71657C2.44507 5.06189 2.76651 4.46052 3.23851 3.98852C3.71052 3.51651 4.31188 3.19508 4.96657 3.06485C5.62126 2.93463 6.29986 3.00146 6.91656 3.25691C7.53326 3.51235 8.06036 3.94494 8.43121 4.49995C8.80206 5.05497 9 5.70749 9 6.375C8.99901 7.2698 8.64311 8.12767 8.01039 8.76039C7.37767 9.39311 6.5198 9.74901 5.625 9.75ZM5.625 4.5C5.25416 4.5 4.89165 4.60997 4.58331 4.816C4.27496 5.02202 4.03464 5.31486 3.89273 5.65747C3.75081 6.00008 3.71368 6.37708 3.78603 6.7408C3.85837 7.10451 4.03695 7.4386 4.29917 7.70083C4.5614 7.96305 4.89549 8.14163 5.25921 8.21397C5.62292 8.28632 5.99992 8.24919 6.34253 8.10728C6.68514 7.96536 6.97798 7.72504 7.18401 7.4167C7.39003 7.10835 7.5 6.74584 7.5 6.375C7.5 5.87772 7.30246 5.40081 6.95083 5.04918C6.59919 4.69755 6.12228 4.5 5.625 4.5ZM11.25 17.25V16.875C11.25 15.3832 10.6574 13.9524 9.60248 12.8975C8.54758 11.8426 7.11684 11.25 5.625 11.25C4.13316 11.25 2.70242 11.8426 1.64752 12.8975C0.592632 13.9524 0 15.3832 0 16.875V17.25C0 17.4489 0.0790176 17.6397 0.21967 17.7803C0.360322 17.921 0.551088 18 0.75 18C0.948912 18 1.13968 17.921 1.28033 17.7803C1.42098 17.6397 1.5 17.4489 1.5 17.25V16.875C1.5 15.781 1.9346 14.7318 2.70818 13.9582C3.48177 13.1846 4.53098 12.75 5.625 12.75C6.71902 12.75 7.76823 13.1846 8.54182 13.9582C9.3154 14.7318 9.75 15.781 9.75 16.875V17.25C9.75 17.4489 9.82902 17.6397 9.96967 17.7803C10.1103 17.921 10.3011 18 10.5 18C10.6989 18 10.8897 17.921 11.0303 17.7803C11.171 17.6397 11.25 17.4489 11.25 17.25ZM18 13.5C18 12.4865 17.7066 11.4947 17.1553 10.6443C16.604 9.79385 15.8183 9.12119 14.8931 8.70748C13.9679 8.29376 12.9427 8.15669 11.9413 8.3128C10.9399 8.46892 10.0051 8.91154 9.24975 9.58725C9.17533 9.65265 9.1146 9.73215 9.07107 9.82115C9.02754 9.91016 9.00208 10.0069 8.99616 10.1058C8.99024 10.2047 9.00397 10.3038 9.03656 10.3974C9.06915 10.4909 9.11996 10.5771 9.18604 10.6509C9.25213 10.7247 9.33219 10.7847 9.42159 10.8274C9.51099 10.8701 9.60797 10.8947 9.70692 10.8997C9.80587 10.9047 9.90483 10.89 9.99809 10.8566C10.0913 10.8231 10.1771 10.7715 10.2502 10.7048C10.7898 10.2222 11.4576 9.90617 12.1728 9.79475C12.8881 9.68333 13.6203 9.7813 14.2811 10.0768C14.9419 10.3724 15.503 10.8529 15.8967 11.4603C16.2905 12.0677 16.5 12.7761 16.5 13.5C16.5 13.6989 16.579 13.8897 16.7197 14.0303C16.8603 14.171 17.0511 14.25 17.25 14.25C17.4489 14.25 17.6397 14.171 17.7803 14.0303C17.921 13.8897 18 13.6989 18 13.5ZM13.125 6.75C12.4575 6.75 11.805 6.55206 11.25 6.18121C10.6949 5.81036 10.2624 5.28326 10.0069 4.66656C9.75146 4.04986 9.68462 3.37126 9.81485 2.71657C9.94507 2.06189 10.2665 1.46052 10.7385 0.988516C11.2105 0.516514 11.8119 0.195076 12.4666 0.0648512C13.1213 -0.0653739 13.7999 0.00146234 14.4166 0.256908C15.0333 0.512354 15.5604 0.944936 15.9312 1.49995C16.3021 2.05497 16.5 2.70749 16.5 3.375C16.499 4.2698 16.1431 5.12767 15.5104 5.76039C14.8777 6.39311 14.0198 6.74901 13.125 6.75ZM13.125 1.5C12.7542 1.5 12.3916 1.60997 12.0833 1.816C11.775 2.02202 11.5346 2.31486 11.3927 2.65747C11.2508 3.00008 11.2137 3.37708 11.286 3.7408C11.3584 4.10451 11.537 4.4386 11.7992 4.70083C12.0614 4.96305 12.3955 5.14163 12.7592 5.21397C13.1229 5.28632 13.4999 5.24919 13.8425 5.10728C14.1851 4.96536 14.478 4.72504 14.684 4.4167C14.89 4.10835 15 3.74584 15 3.375C15 2.87772 14.8025 2.40081 14.4508 2.04918C14.0992 1.69755 13.6223 1.5 13.125 1.5Z" fill="black" fill-opacity="0.54"/>
</svg>
