<svg width="18" height="18" viewBox="0 0 18 18" fill="none" xmlns="http://www.w3.org/2000/svg">
<path d="M14.1905 8.89778H10.6119C9.77322 8.89778 9.0933 8.21679 9.0933 7.37678V3.7827C9.0954 3.07365 8.7682 2.4039 8.20794 1.97045C7.67705 1.54938 6.98093 1.3993 6.32411 1.56435C1.85977 2.67429 -0.860937 7.19886 0.2473 11.6702C1.02809 14.8205 3.56254 17.2312 6.74403 17.8496C11.0902 18.6828 15.3309 15.9764 16.413 11.6789C16.5784 11.0202 16.4288 10.3219 16.0083 9.78909C15.5705 9.22895 14.9007 8.90049 14.1905 8.89778Z" fill="white"/>
<path d="M17.9399 5.43449C17.7666 4.78919 17.5085 4.1698 17.1723 3.59258C16.1611 1.85516 14.5093 0.584772 12.5724 0.0547555C12.4448 0.0202838 12.1594 0 12.1594 0C12.0574 3.56481e-05 11.618 -3.02193e-08 11.2702 0.282155C10.7591 0.685015 10.6787 1.14302 10.6711 1.17878C10.6446 1.29093 10.6308 1.40575 10.6301 1.521V5.09533C10.6301 6.35535 11.65 7.37681 12.908 7.37681H16.4912C16.9666 7.37817 17.414 7.15212 17.6955 6.76841C17.9036 6.48732 18.0107 6.14396 17.9992 5.79421C17.9931 5.67244 17.9733 5.55173 17.9399 5.43449Z" fill="white"/>
</svg>
