<svg width="18" height="18" viewBox="0 0 18 18" fill="none" xmlns="http://www.w3.org/2000/svg">
<path d="M14.1921 8.89844H10.6126C10.2098 8.89844 9.82342 8.73818 9.53855 8.45292C9.25369 8.16766 9.09365 7.78077 9.09365 7.37735V3.78302C9.09468 3.43315 9.01536 3.08774 8.8618 2.77348C8.70824 2.45921 8.48457 2.18452 8.20808 1.97064C7.94608 1.76287 7.63989 1.61818 7.31317 1.54777C6.98645 1.47735 6.64793 1.48307 6.32377 1.56451C4.4825 2.02221 2.85238 3.09553 1.70299 4.60696C0.553604 6.11839 -0.046198 7.9774 0.00277828 9.87655C0.0517546 11.7757 0.746575 13.6012 1.97233 15.0512C3.19809 16.5012 4.88136 17.4889 6.74377 17.8508C8.83778 18.2522 11.0058 17.8367 12.8038 16.6894C14.6018 15.5421 15.8938 13.7499 16.4152 11.6797C16.4968 11.3547 16.5027 11.0153 16.4326 10.6876C16.3624 10.3599 16.2179 10.0527 16.0104 9.7898C15.7942 9.5133 15.5184 9.28946 15.2034 9.13507C14.8885 8.98069 14.5428 8.89978 14.1921 8.89844ZM14.9425 11.3078C14.6517 12.4805 14.0551 13.5548 13.2137 14.4208C12.3722 15.2868 11.3162 15.9134 10.1535 16.2366C8.99091 16.5598 7.7634 16.568 6.59659 16.2603C5.42977 15.9525 4.36551 15.34 3.51266 14.4853C2.65982 13.6305 2.049 12.5643 1.74267 11.3956C1.43635 10.2269 1.44552 8.99773 1.76924 7.83376C2.09296 6.66978 2.71962 5.6128 3.58512 4.77092C4.45061 3.92904 5.52389 3.33248 6.69517 3.04225C6.79537 3.01718 6.90004 3.01595 7.0008 3.03867C7.10156 3.06138 7.19561 3.10741 7.27542 3.17306C7.36967 3.24501 7.4461 3.33774 7.49878 3.44405C7.55147 3.55035 7.57899 3.66738 7.57922 3.78606V7.37735C7.57922 8.18419 7.89929 8.95797 8.46902 9.52849C9.03875 10.099 9.81147 10.4195 10.6172 10.4195H14.1959C14.3155 10.42 14.4334 10.4476 14.5407 10.5003C14.6481 10.553 14.7421 10.6294 14.8157 10.7237C14.8802 10.8048 14.9252 10.8997 14.9471 11.001C14.969 11.1023 14.9679 11.2073 14.9425 11.3078Z" fill="black" fill-opacity="1"/>
<path d="M17.9425 5.43492C17.5928 4.14768 16.9136 2.97418 15.9719 2.03055C15.0303 1.08693 13.8589 0.405888 12.5737 0.0548278C12.4389 0.0185571 12.3 0.000146914 12.1605 6.86463e-05C11.9598 -0.00184061 11.7607 0.036094 11.5748 0.111681C11.3888 0.187267 11.2196 0.299007 11.0771 0.440444C10.9345 0.581881 10.8213 0.75021 10.7441 0.935705C10.6668 1.1212 10.6271 1.32018 10.6271 1.52116V5.09572C10.6271 5.70084 10.8671 6.28119 11.2944 6.70907C11.7217 7.13696 12.3013 7.37735 12.9056 7.37735H16.4896C16.724 7.37509 16.9548 7.31874 17.1639 7.21268C17.3731 7.10661 17.555 6.95369 17.6956 6.76578C17.8361 6.57788 17.9315 6.36006 17.9743 6.12925C18.0172 5.89843 18.0063 5.66084 17.9425 5.43492ZM12.9025 5.85626C12.7011 5.85626 12.5079 5.77613 12.3655 5.6335C12.223 5.49087 12.143 5.29743 12.143 5.09572L12.1369 1.52648C12.1425 1.52246 12.1491 1.52008 12.1559 1.51964H12.1757C13.2102 1.80186 14.1527 2.35084 14.9091 3.11179C15.6656 3.87274 16.2095 4.81904 16.4866 5.85626H12.9025Z" fill="black" fill-opacity="1"/>
</svg>
