<svg width="18" height="17" viewBox="0 0 18 17" fill="none" xmlns="http://www.w3.org/2000/svg">
<path d="M11.25 12.7656H0V2.26562C0 1.66889 0.237053 1.09659 0.65901 0.674635C1.08097 0.252678 1.65326 0.015625 2.25 0.015625H9C9.59674 0.015625 10.169 0.252678 10.591 0.674635C11.0129 1.09659 11.25 1.66889 11.25 2.26562V12.7656ZM12.75 12.7656H18V9.01562H12.75V12.7656ZM14.25 3.01562H12.75V7.51562H18V6.76562C17.9988 5.77143 17.6033 4.81829 16.9003 4.11529C16.1973 3.41229 15.2442 3.01682 14.25 3.01562ZM2.2935 14.2656C2.26603 14.3888 2.25145 14.5145 2.25 14.6406C2.25 15.1379 2.44754 15.6148 2.79917 15.9664C3.15081 16.3181 3.62772 16.5156 4.125 16.5156C4.62228 16.5156 5.09919 16.3181 5.45083 15.9664C5.80246 15.6148 6 15.1379 6 14.6406C5.99855 14.5145 5.98397 14.3888 5.9565 14.2656H2.2935ZM12.7935 14.2656C12.766 14.3888 12.7514 14.5145 12.75 14.6406C12.75 15.1379 12.9475 15.6148 13.2992 15.9664C13.6508 16.3181 14.1277 16.5156 14.625 16.5156C15.1223 16.5156 15.5992 16.3181 15.9508 15.9664C16.3025 15.6148 16.5 15.1379 16.5 14.6406C16.4986 14.5145 16.484 14.3888 16.4565 14.2656H12.7935Z" fill="white"/>
</svg>
