<svg width="18" height="18" viewBox="0 0 18 18" fill="none" xmlns="http://www.w3.org/2000/svg">
<path opacity="0.87" d="M9 0C6.61384 0.00258919 4.32616 0.954709 2.63889 2.64745C0.951621 4.3402 0.00258081 6.6353 0 9.0292C0.45 20.9929 17.55 20.9876 18 9.0292C17.9974 6.6353 17.0484 4.3402 15.3611 2.64745C13.6738 0.954709 11.3862 0.00258919 9 0ZM9 2.2573C10.3319 2.25859 11.6338 2.65464 12.7421 3.39574C13.8504 4.13683 14.7158 5.18992 15.2295 6.42277L10.518 7.36858C9.48073 7.57625 8.41277 7.57625 7.3755 7.36858L2.76225 6.44234C3.27361 5.20458 4.13897 4.14653 5.24913 3.40171C6.35928 2.65688 7.66448 2.25866 9 2.2573ZM2.2545 9.2602L4.62 9.73499C5.0518 9.82164 5.45929 10.0026 5.81354 10.265C6.16779 10.5274 6.46011 10.8649 6.66975 11.2534L7.1385 12.121C7.37515 12.5601 7.49936 13.0514 7.5 13.5506V15.6296C6.04868 15.2954 4.74788 14.4899 3.79943 13.3383C2.85098 12.1866 2.30792 10.7531 2.2545 9.2602ZM10.5 15.6326V13.5536C10.5006 13.0544 10.6249 12.5631 10.8615 12.124L11.3303 11.2564C11.5399 10.8679 11.8322 10.5305 12.1865 10.268C12.5407 10.0056 12.9482 9.82466 13.38 9.738L15.7455 9.26321C15.6921 10.7561 15.149 12.1896 14.2006 13.3413C13.2521 14.493 11.9513 15.2984 10.5 15.6326Z" fill="white"/>
</svg>
