<svg width="18" height="18" viewBox="0 0 18 18" fill="none" xmlns="http://www.w3.org/2000/svg">
<path d="M9 0C6.61384 0.00258081 4.32616 0.951621 2.63889 2.63889C0.951621 4.32616 0.00258081 6.61384 0 9C0.45 20.925 17.55 20.9197 18 9C17.9974 6.61384 17.0484 4.32616 15.3611 2.63889C13.6738 0.951621 11.3862 0.00258081 9 0ZM9 1.5C10.3742 1.501 11.7218 1.87918 12.8959 2.59332C14.07 3.30746 15.0256 4.33017 15.6585 5.55L10.3717 6.6075C9.43116 6.79659 8.46234 6.79659 7.52175 6.6075L2.331 5.571C2.96186 4.34567 3.91783 3.31764 5.09417 2.59956C6.27051 1.88148 7.62181 1.50107 9 1.5ZM1.54875 9.8535L4.47375 10.4385C4.79785 10.5031 5.10369 10.6384 5.36946 10.8348C5.63523 11.0312 5.85437 11.2839 6.01125 11.5747L6.47925 12.4395C6.6571 12.7685 6.75015 13.1365 6.75 13.5105V16.155C5.36792 15.7177 4.14169 14.8902 3.21891 13.7723C2.29613 12.6543 1.71614 11.2934 1.54875 9.8535ZM8.25 16.4625V13.5105C8.25048 12.8871 8.09583 12.2734 7.8 11.7247L7.329 10.86C7.06763 10.3754 6.70246 9.95452 6.25958 9.62741C5.81669 9.3003 5.30703 9.07505 4.767 8.96775L1.5315 8.3205C1.57147 7.87023 1.65282 7.4246 1.7745 6.98925L7.2285 8.07975C8.36291 8.30775 9.53134 8.30775 10.6657 8.07975L16.2203 6.969C16.3447 7.41031 16.4278 7.86227 16.4685 8.319L13.233 8.96625C12.6931 9.07357 12.1835 9.29874 11.7406 9.62571C11.2978 9.95267 10.9325 10.3734 10.671 10.8577L10.2 11.7247C9.90417 12.2734 9.74952 12.8871 9.75 13.5105V16.4625C9.25123 16.512 8.74877 16.512 8.25 16.4625ZM11.25 16.155V13.5105C11.2501 13.1365 11.3434 12.7684 11.5215 12.4395L11.9895 11.574C12.1467 11.2835 12.366 11.0311 12.6317 10.8349C12.8974 10.6386 13.2031 10.5033 13.527 10.4385L16.452 9.8535C16.2846 11.2935 15.7044 12.6544 14.7815 13.7724C13.8586 14.8904 12.6322 15.7178 11.25 16.155Z" fill="black" fill-opacity="1"/>
</svg>
