<svg width="57" height="56" viewBox="0 0 57 56" fill="none" xmlns="http://www.w3.org/2000/svg">
<path d="M37.5977 19.2722C38.2206 19.2722 38.7255 18.767 38.7255 18.1437C38.7255 17.5204 38.2206 17.0151 37.5977 17.0151C36.9749 17.0151 36.4699 17.5204 36.4699 18.1437C36.4699 18.767 36.9749 19.2722 37.5977 19.2722Z" fill="#6F59DA"/>
<path d="M23.0406 18.6704C24.8953 18.6704 26.6789 19.3641 28.049 20.6087C28.0496 20.6081 28.0503 20.6076 28.0509 20.607C28.7436 21.2402 29.3145 21.996 29.7346 22.8368C30.1037 23.5756 30.2552 24.4478 30.3376 25.309C30.0723 25.9426 29.9182 26.6691 29.9178 27.4351C29.9181 28.5263 30.2697 29.6117 30.6213 30.6972C30.97 31.7734 31.3186 32.8496 31.3249 33.9315L31.3259 34.1108C31.3259 35.9713 29.9769 37.4796 28.1283 37.4796C26.2797 37.4796 24.9306 35.9713 24.9306 34.1108L24.9299 33.9955C24.9235 32.8952 25.2766 31.7983 25.6297 30.7013C25.9004 29.8604 26.1711 29.0195 26.2799 28.1771C26.307 28.1476 26.3224 28.1074 26.3194 28.0643C26.3159 28.0146 26.3122 27.9646 26.3083 27.9144C26.3222 27.7547 26.3297 27.5949 26.3297 27.4351C26.3302 26.2859 25.9831 25.225 25.4342 24.434C25.3173 24.2656 25.1869 24.1038 25.0443 23.9537C24.6712 23.4205 24.2333 22.9338 23.7397 22.5054C22.9505 21.8204 22.0342 21.2976 21.0431 20.967C20.087 20.648 19.0793 20.5138 18.0738 20.5713C19.4383 19.3502 21.2046 18.6704 23.0406 18.6704Z" fill="url(#paint0_linear_816_27328)"/>
<path d="M30.5836 24.8033C30.6556 24.6749 30.7325 24.5517 30.8138 24.4345C31.3479 23.665 32.1645 23.0341 33.1327 23.0341C34.1003 23.0335 34.9174 23.665 35.451 24.434C35.9999 25.225 36.347 26.2859 36.3465 27.4351C36.3468 28.5638 35.9424 29.6672 35.5378 30.771C35.1462 31.8395 34.7544 32.9083 34.7296 34.0005L34.6818 36.1046C34.6818 37.6951 36.1123 38.9844 37.6926 38.9844C39.2728 38.9844 40.5529 37.6977 40.5512 36.1072C40.5497 34.7532 40.544 32.7298 40.537 30.8183C40.5271 28.1339 40.5149 25.6703 40.5086 25.5922C40.5086 23.7865 39.6034 22.1424 38.3431 20.874C36.9413 19.463 35.0399 18.6704 33.0574 18.6704C31.3049 18.6704 29.6158 19.2897 28.2791 20.4081C28.9876 21.0614 29.5721 21.8386 30.0036 22.7022C30.3256 23.3468 30.4891 24.0787 30.5836 24.8033Z" fill="url(#paint1_linear_816_27328)"/>
<path d="M23.524 22.7327C23.7127 22.8965 23.893 23.0692 24.0643 23.2501C23.7648 23.1132 23.4405 23.0339 23.0972 23.0341C22.129 23.0341 21.3125 23.665 20.7784 24.4345C20.2295 25.2255 19.8829 26.2859 19.8823 27.4351C19.8827 28.5815 20.3028 29.6997 20.7231 30.8183C21.1258 31.8901 21.5287 32.9624 21.5626 34.0604L21.6229 36.0126C21.6229 37.6539 20.1514 38.9844 18.5206 38.9844C16.8899 38.9844 15.5688 37.6558 15.5707 36.0145C15.5722 34.5991 15.5687 30.5017 15.5687 30.5017C15.5687 30.5017 15.5647 25.667 15.5706 25.5922C15.5706 23.7865 16.4759 22.1424 17.7361 20.874C17.7083 20.9011 17.7636 20.8464 17.7361 20.874C17.8132 20.874 17.8923 20.8785 17.966 20.8785C18.9687 20.8073 19.9757 20.9343 20.9293 21.2525C21.8829 21.5706 22.7646 22.0736 23.524 22.7327Z" fill="url(#paint2_linear_816_27328)"/>
<path d="M41.4322 20.4008C41.4322 21.0241 40.9273 21.5294 40.3044 21.5294C39.6816 21.5294 39.1766 21.0241 39.1766 20.4008C39.1766 19.7775 39.6816 19.2722 40.3044 19.2722C40.9273 19.2722 41.4322 19.7775 41.4322 20.4008Z" fill="#6F59DA"/>
<defs>
<linearGradient id="paint0_linear_816_27328" x1="20.3648" y1="14.0809" x2="28.4991" y2="38.9846" gradientUnits="userSpaceOnUse">
<stop stop-color="#EAC7FF"/>
<stop offset="0.434" stop-color="#6F59DA"/>
<stop offset="1" stop-color="#A562D8"/>
</linearGradient>
<linearGradient id="paint1_linear_816_27328" x1="28.9751" y1="22.3459" x2="43.8367" y2="21.5389" gradientUnits="userSpaceOnUse">
<stop stop-color="#47029D"/>
<stop offset="0.246783" stop-color="#8C45D2"/>
<stop offset="0.742075" stop-color="#C07EEA"/>
</linearGradient>
<linearGradient id="paint2_linear_816_27328" x1="24.9545" y1="20.6265" x2="8.26491" y2="32.939" gradientUnits="userSpaceOnUse">
<stop offset="0.121762" stop-color="#45009C"/>
<stop offset="1" stop-color="#E09FFF"/>
</linearGradient>
</defs>
</svg>
