<svg width="81" height="81" viewBox="0 0 81 81" fill="none" xmlns="http://www.w3.org/2000/svg">
<g id="Frame">
<path id="Vector" fill-rule="evenodd" clip-rule="evenodd" d="M8 39.5C8 21.55 22.55 7 40.5 7C58.45 7 73 21.55 73 39.5C73 57.45 58.45 72 40.5 72C22.55 72 8 57.45 8 39.5ZM52.5333 33.4533C52.7333 33.1868 52.878 32.8831 52.959 32.5598C53.0399 32.2366 53.0554 31.9005 53.0045 31.5712C52.9537 31.2419 52.8375 30.9261 52.6628 30.6423C52.4882 30.3586 52.2586 30.1126 51.9875 29.9188C51.7164 29.7251 51.4094 29.5875 51.0844 29.5141C50.7593 29.4407 50.4229 29.433 50.0949 29.4915C49.7669 29.55 49.4539 29.6735 49.1743 29.8547C48.8946 30.0359 48.6541 30.2712 48.4667 30.5467L37.68 45.6467L32.2667 40.2333C31.7927 39.7917 31.1659 39.5513 30.5183 39.5627C29.8706 39.5742 29.2526 39.8366 28.7946 40.2946C28.3366 40.7526 28.0742 41.3706 28.0627 42.0183C28.0513 42.6659 28.2917 43.2927 28.7333 43.7667L36.2333 51.2667C36.49 51.5231 36.7993 51.7206 37.14 51.8455C37.4806 51.9704 37.8443 52.0196 38.2059 51.9898C38.5674 51.96 38.9182 51.8518 39.2338 51.6728C39.5493 51.4939 39.8222 51.2483 40.0333 50.9533L52.5333 33.4533Z" fill="#6F59DA"/>
</g>
</svg>
