<svg width="31" height="30" viewBox="0 0 31 30" fill="none" xmlns="http://www.w3.org/2000/svg">
<ellipse cx="11.3405" cy="11.5494" rx="11.3405" ry="11.5494" transform="matrix(0.325598 0.945508 -0.94993 0.312461 22.6489 0.957031)" fill="#C6B8FB" fill-opacity="0.4"/>
<ellipse cx="8.50535" cy="8.66206" rx="8.50535" ry="8.66206" transform="matrix(0.325598 0.945508 -0.94993 0.312461 20.8286 4.53906)" fill="#6F59DA"/>
<g filter="url(#filter0_d_816_19064)">
<path d="M14.1909 18.7563C16.3486 16.9297 15.1339 13.4025 12.2853 13.2227L10.4575 13.1073C10.3101 13.098 10.1722 13.1761 10.1061 13.3062C10.0365 13.4432 10.0608 13.6098 10.1671 13.7234L11.522 15.1716C12.1509 15.8438 12.4622 16.7479 12.3772 17.655L12.194 19.6091C12.1796 19.7624 12.2632 19.9095 12.4034 19.9775C12.5366 20.0421 12.6948 20.0228 12.8064 19.9283L14.1909 18.7563Z" fill="#FDFDFD"/>
</g>
<defs>
<filter id="filter0_d_816_19064" x="7.07525" y="13.1074" width="11.2079" height="12.8915" filterUnits="userSpaceOnUse" color-interpolation-filters="sRGB">
<feFlood flood-opacity="0" result="BackgroundImageFix"/>
<feColorMatrix in="SourceAlpha" type="matrix" values="0 0 0 0 0 0 0 0 0 0 0 0 0 0 0 0 0 0 127 0" result="hardAlpha"/>
<feOffset dy="2.99164"/>
<feGaussianBlur stdDeviation="1.49582"/>
<feComposite in2="hardAlpha" operator="out"/>
<feColorMatrix type="matrix" values="0 0 0 0 0 0 0 0 0 0 0 0 0 0 0 0 0 0 0.25 0"/>
<feBlend mode="normal" in2="BackgroundImageFix" result="effect1_dropShadow_816_19064"/>
<feBlend mode="normal" in="SourceGraphic" in2="effect1_dropShadow_816_19064" result="shape"/>
</filter>
</defs>
</svg>
