<svg width="18" height="10" viewBox="0 0 18 10" fill="none" xmlns="http://www.w3.org/2000/svg">
<path fill-rule="evenodd" clip-rule="evenodd" d="M9.52985 9.27991C9.38922 9.42036 9.1986 9.49925 8.99985 9.49925C8.8011 9.49925 8.61047 9.42036 8.46985 9.27991L0.969847 1.77991C0.837366 1.63773 0.765243 1.44969 0.768672 1.25539C0.7721 1.06109 0.850812 0.8757 0.988225 0.738287C1.12564 0.600874 1.31102 0.522163 1.50532 0.518734C1.69963 0.515306 1.88767 0.587429 2.02985 0.719909L8.99985 7.68991L15.9698 0.719909C16.0385 0.646222 16.1213 0.58712 16.2133 0.546128C16.3053 0.505136 16.4046 0.483095 16.5053 0.481318C16.606 0.479541 16.7061 0.498066 16.7994 0.535787C16.8928 0.573508 16.9777 0.629652 17.0489 0.700871C17.1201 0.77209 17.1762 0.856923 17.214 0.950312C17.2517 1.0437 17.2702 1.14373 17.2684 1.24443C17.2667 1.34513 17.2446 1.44445 17.2036 1.53645C17.1626 1.62845 17.1035 1.71125 17.0298 1.77991L9.52985 9.27991Z" fill="black"/>
</svg>
