<svg width="24" height="24" viewBox="0 0 24 24" fill="none" xmlns="http://www.w3.org/2000/svg">
<path d="M3.88216 17.3261C3.31749 17.8906 3.00017 18.6563 3 19.4547V21H4.54529C5.34374 20.9998 6.10942 20.6825 6.67393 20.1178L16.7172 10.0746L13.9254 7.28281L3.88216 17.3261Z" fill="#1D1B21"/>
<path d="M20.4212 3.57878C20.2379 3.39529 20.0203 3.24974 19.7807 3.15043C19.5411 3.05112 19.2843 3 19.025 3C18.7656 3 18.5088 3.05112 18.2692 3.15043C18.0297 3.24974 17.812 3.39529 17.6287 3.57878L14.9898 6.21849L17.7815 9.01025L20.4212 6.37129C20.6047 6.188 20.7503 5.97034 20.8496 5.73076C20.9489 5.49118 21 5.23438 21 4.97503C21 4.71569 20.9489 4.45888 20.8496 4.2193C20.7503 3.97972 20.6047 3.76207 20.4212 3.57878Z" fill="#1D1B21"/>
</svg>
