<svg width="22" height="21" viewBox="0 0 22 21" fill="none" xmlns="http://www.w3.org/2000/svg">
<path d="M20.731 0.76869C20.2387 0.276502 19.5711 0 18.875 0C18.1789 0 17.5113 0.276502 17.019 0.76869L15.862 1.92569L19.574 5.63769L20.731 4.48069C21.2232 3.98842 21.4997 3.32081 21.4997 2.62469C21.4997 1.92857 21.2232 1.26096 20.731 0.76869ZM18.513 6.69869L14.801 2.98669L2.65101 15.1367C2.03386 15.7535 1.58019 16.5145 1.33101 17.3507L0.53101 20.0357C0.492387 20.1653 0.489506 20.3029 0.522673 20.4339C0.555841 20.565 0.623823 20.6847 0.719426 20.7803C0.815029 20.8759 0.934698 20.9439 1.06577 20.977C1.19684 21.0102 1.33444 21.0073 1.46401 20.9687L4.14901 20.1687C4.98524 19.9195 5.74617 19.4658 6.36301 18.8487L18.513 6.69869Z" fill="black"/>
</svg>
