<svg width="2088" height="1340" viewBox="0 0 2088 1340" fill="none" xmlns="http://www.w3.org/2000/svg">
<g clip-path="url(#clip0_104_2)">
<rect width="2088" height="1340" fill="white"/>
<rect width="2088" height="1340" fill="url(#paint0_linear_104_2)"/>
<rect width="2088" height="1340" fill="url(#paint1_linear_104_2)"/>
<path opacity="0.5" d="M1730.41 1180.93L1718.39 1164.4L1730.39 1147.86L1710.96 1154.19L1698.93 1137.66L1698.95 1158.1L1679.51 1164.42L1698.95 1170.73L1698.96 1191.17L1710.97 1174.63L1730.41 1180.93Z" fill="url(#paint2_linear_104_2)" fill-opacity="0.3"/>
<path opacity="0.5" d="M1586.13 1079.93C1639.1 1077.68 1674.43 1117.26 1689.11 1140.8C1682.42 1143.03 1680.56 1146.11 1679.64 1151.31C1622.19 1106.51 1577.85 1121.6 1577.85 1121.6L1606.17 1102.25L1586.13 1079.93Z" fill="url(#paint3_linear_104_2)" fill-opacity="0.3"/>
<circle cx="1732.93" cy="428.404" r="7.28101" transform="rotate(-23.0127 1732.93 428.404)" fill="url(#paint4_radial_104_2)"/>
<circle cx="2.427" cy="2.427" r="2.427" transform="matrix(-0.920418 0.390936 0.390936 0.920418 1646.45 282.44)" fill="url(#paint5_radial_104_2)"/>
<circle cx="2.427" cy="2.427" r="2.427" transform="matrix(-0.920418 0.390936 0.390936 0.920418 1589.1 445.42)" fill="url(#paint6_radial_104_2)"/>
<circle cx="2.427" cy="2.427" r="2.427" transform="matrix(-0.920418 0.390936 0.390936 0.920418 1563.25 246.205)" fill="url(#paint7_radial_104_2)"/>
<circle cx="2.427" cy="2.427" r="2.427" transform="matrix(-0.920418 0.390936 0.390936 0.920418 1654.56 532.132)" fill="url(#paint8_radial_104_2)"/>
<circle cx="2.427" cy="2.427" r="2.427" transform="matrix(-0.920418 0.390936 0.390936 0.920418 1758.26 533.288)" fill="url(#paint9_radial_104_2)"/>
<path d="M1561.65 249.523L1645.16 285.623L1732.93 428.404M1732.93 428.404L1756.98 536.47L1653.27 535.315L1587.82 448.603L1732.93 428.404Z" stroke="url(#paint10_linear_104_2)" stroke-width="0.5"/>
<circle cx="1928.5" cy="485.5" r="4.5" fill="url(#paint11_radial_104_2)"/>
<circle cx="1718.5" cy="994.5" r="4.5" fill="url(#paint12_radial_104_2)"/>
<circle cx="1893.5" cy="897.5" r="4.5" fill="url(#paint13_radial_104_2)"/>
<circle cx="1844.5" cy="1175.5" r="4.5" fill="url(#paint14_radial_104_2)"/>
<circle cx="1496.5" cy="1142.5" r="4.5" fill="url(#paint15_radial_104_2)"/>
<circle cx="1258.5" cy="1055.5" r="4.5" fill="url(#paint16_radial_104_2)"/>
<circle cx="1154.5" cy="1225.5" r="4.5" fill="url(#paint17_radial_104_2)"/>
<circle cx="1840.5" cy="353.5" r="4.5" fill="url(#paint18_radial_104_2)"/>
<circle cx="1410.5" cy="293.5" r="4.5" fill="url(#paint19_radial_104_2)"/>
<circle cx="1470.5" cy="121.5" r="4.5" fill="url(#paint20_radial_104_2)"/>
<circle cx="1174.5" cy="186.5" r="4.5" fill="url(#paint21_radial_104_2)"/>
<circle cx="1894" cy="203" r="12" fill="url(#paint22_radial_104_2)"/>
<circle cx="1588" cy="755" r="12" fill="url(#paint23_radial_104_2)"/>
<circle cx="1321" cy="1159" r="12" fill="url(#paint24_radial_104_2)"/>
<circle cx="1835.5" cy="702.5" r="19.5" fill="url(#paint25_radial_104_2)"/>
</g>
<defs>
<linearGradient id="paint0_linear_104_2" x1="1993.5" y1="1166.72" x2="311.308" y2="174.327" gradientUnits="userSpaceOnUse">
<stop stop-color="#574284"/>
<stop offset="0.552083" stop-color="#372857"/>
<stop offset="1" stop-color="#251E34"/>
</linearGradient>
<linearGradient id="paint1_linear_104_2" x1="1993.5" y1="1166.72" x2="311.308" y2="174.327" gradientUnits="userSpaceOnUse">
<stop stop-color="#5EAAAF"/>
<stop offset="0.580019" stop-color="#2F2E6C"/>
<stop offset="1" stop-color="#251F3E"/>
</linearGradient>
<linearGradient id="paint2_linear_104_2" x1="1712.17" y1="1161.64" x2="1695.87" y2="1197.56" gradientUnits="userSpaceOnUse">
<stop stop-color="#F5F6FD"/>
<stop offset="1" stop-color="#F5F6FD" stop-opacity="0"/>
</linearGradient>
<linearGradient id="paint3_linear_104_2" x1="1557.63" y1="1086.69" x2="1740.65" y2="1124.99" gradientUnits="userSpaceOnUse">
<stop offset="0.152778" stop-color="#FCFCFF" stop-opacity="0"/>
<stop offset="0.586413" stop-color="#FCFCFF"/>
</linearGradient>
<radialGradient id="paint4_radial_104_2" cx="0" cy="0" r="1" gradientUnits="userSpaceOnUse" gradientTransform="translate(1732.93 428.404) rotate(90) scale(7.28101)">
<stop stop-color="#C4C4C4"/>
<stop offset="1" stop-color="#C4C4C4" stop-opacity="0"/>
</radialGradient>
<radialGradient id="paint5_radial_104_2" cx="0" cy="0" r="1" gradientUnits="userSpaceOnUse" gradientTransform="translate(2.427 2.427) rotate(90) scale(2.427)">
<stop stop-color="#C4C4C4"/>
<stop offset="1" stop-color="#C4C4C4" stop-opacity="0"/>
</radialGradient>
<radialGradient id="paint6_radial_104_2" cx="0" cy="0" r="1" gradientUnits="userSpaceOnUse" gradientTransform="translate(2.427 2.427) rotate(90) scale(2.427)">
<stop stop-color="#C4C4C4"/>
<stop offset="1" stop-color="#C4C4C4" stop-opacity="0"/>
</radialGradient>
<radialGradient id="paint7_radial_104_2" cx="0" cy="0" r="1" gradientUnits="userSpaceOnUse" gradientTransform="translate(2.427 2.427) rotate(90) scale(2.427)">
<stop stop-color="#C4C4C4"/>
<stop offset="1" stop-color="#C4C4C4" stop-opacity="0"/>
</radialGradient>
<radialGradient id="paint8_radial_104_2" cx="0" cy="0" r="1" gradientUnits="userSpaceOnUse" gradientTransform="translate(2.427 2.427) rotate(90) scale(2.427)">
<stop stop-color="#C4C4C4"/>
<stop offset="1" stop-color="#C4C4C4" stop-opacity="0"/>
</radialGradient>
<radialGradient id="paint9_radial_104_2" cx="0" cy="0" r="1" gradientUnits="userSpaceOnUse" gradientTransform="translate(2.427 2.427) rotate(90) scale(2.427)">
<stop stop-color="#C4C4C4"/>
<stop offset="1" stop-color="#C4C4C4" stop-opacity="0"/>
</radialGradient>
<linearGradient id="paint10_linear_104_2" x1="1622.39" y1="399.638" x2="1788.41" y2="588.29" gradientUnits="userSpaceOnUse">
<stop stop-color="white"/>
<stop offset="1" stop-color="white" stop-opacity="0"/>
</linearGradient>
<radialGradient id="paint11_radial_104_2" cx="0" cy="0" r="1" gradientUnits="userSpaceOnUse" gradientTransform="translate(1928.5 485.5) rotate(90) scale(4.5)">
<stop stop-color="#C4C4C4"/>
<stop offset="1" stop-color="#C4C4C4" stop-opacity="0"/>
</radialGradient>
<radialGradient id="paint12_radial_104_2" cx="0" cy="0" r="1" gradientUnits="userSpaceOnUse" gradientTransform="translate(1718.5 994.5) rotate(90) scale(4.5)">
<stop stop-color="#C4C4C4"/>
<stop offset="1" stop-color="#C4C4C4" stop-opacity="0"/>
</radialGradient>
<radialGradient id="paint13_radial_104_2" cx="0" cy="0" r="1" gradientUnits="userSpaceOnUse" gradientTransform="translate(1893.5 897.5) rotate(90) scale(4.5)">
<stop stop-color="#C4C4C4"/>
<stop offset="1" stop-color="#C4C4C4" stop-opacity="0"/>
</radialGradient>
<radialGradient id="paint14_radial_104_2" cx="0" cy="0" r="1" gradientUnits="userSpaceOnUse" gradientTransform="translate(1844.5 1175.5) rotate(90) scale(4.5)">
<stop stop-color="#C4C4C4"/>
<stop offset="1" stop-color="#C4C4C4" stop-opacity="0"/>
</radialGradient>
<radialGradient id="paint15_radial_104_2" cx="0" cy="0" r="1" gradientUnits="userSpaceOnUse" gradientTransform="translate(1496.5 1142.5) rotate(90) scale(4.5)">
<stop stop-color="#C4C4C4"/>
<stop offset="1" stop-color="#C4C4C4" stop-opacity="0"/>
</radialGradient>
<radialGradient id="paint16_radial_104_2" cx="0" cy="0" r="1" gradientUnits="userSpaceOnUse" gradientTransform="translate(1258.5 1055.5) rotate(90) scale(4.5)">
<stop stop-color="#C4C4C4"/>
<stop offset="1" stop-color="#C4C4C4" stop-opacity="0"/>
</radialGradient>
<radialGradient id="paint17_radial_104_2" cx="0" cy="0" r="1" gradientUnits="userSpaceOnUse" gradientTransform="translate(1154.5 1225.5) rotate(90) scale(4.5)">
<stop stop-color="#C4C4C4"/>
<stop offset="1" stop-color="#C4C4C4" stop-opacity="0"/>
</radialGradient>
<radialGradient id="paint18_radial_104_2" cx="0" cy="0" r="1" gradientUnits="userSpaceOnUse" gradientTransform="translate(1840.5 353.5) rotate(90) scale(4.5)">
<stop stop-color="#C4C4C4"/>
<stop offset="1" stop-color="#C4C4C4" stop-opacity="0"/>
</radialGradient>
<radialGradient id="paint19_radial_104_2" cx="0" cy="0" r="1" gradientUnits="userSpaceOnUse" gradientTransform="translate(1410.5 293.5) rotate(90) scale(4.5)">
<stop stop-color="#C4C4C4"/>
<stop offset="1" stop-color="#C4C4C4" stop-opacity="0"/>
</radialGradient>
<radialGradient id="paint20_radial_104_2" cx="0" cy="0" r="1" gradientUnits="userSpaceOnUse" gradientTransform="translate(1470.5 121.5) rotate(90) scale(4.5)">
<stop stop-color="#C4C4C4"/>
<stop offset="1" stop-color="#C4C4C4" stop-opacity="0"/>
</radialGradient>
<radialGradient id="paint21_radial_104_2" cx="0" cy="0" r="1" gradientUnits="userSpaceOnUse" gradientTransform="translate(1174.5 186.5) rotate(90) scale(4.5)">
<stop stop-color="#C4C4C4"/>
<stop offset="1" stop-color="#C4C4C4" stop-opacity="0"/>
</radialGradient>
<radialGradient id="paint22_radial_104_2" cx="0" cy="0" r="1" gradientUnits="userSpaceOnUse" gradientTransform="translate(1894 203) rotate(90) scale(12)">
<stop stop-color="#C4C4C4"/>
<stop offset="1" stop-color="#C4C4C4" stop-opacity="0"/>
</radialGradient>
<radialGradient id="paint23_radial_104_2" cx="0" cy="0" r="1" gradientUnits="userSpaceOnUse" gradientTransform="translate(1588 755) rotate(90) scale(12)">
<stop stop-color="#C4C4C4"/>
<stop offset="1" stop-color="#C4C4C4" stop-opacity="0"/>
</radialGradient>
<radialGradient id="paint24_radial_104_2" cx="0" cy="0" r="1" gradientUnits="userSpaceOnUse" gradientTransform="translate(1321 1159) rotate(90) scale(12)">
<stop stop-color="#C4C4C4"/>
<stop offset="1" stop-color="#C4C4C4" stop-opacity="0"/>
</radialGradient>
<radialGradient id="paint25_radial_104_2" cx="0" cy="0" r="1" gradientUnits="userSpaceOnUse" gradientTransform="translate(1835.5 702.5) rotate(90) scale(19.5)">
<stop stop-color="#C4C4C4"/>
<stop offset="1" stop-color="#C4C4C4" stop-opacity="0"/>
</radialGradient>
<clipPath id="clip0_104_2">
<rect width="2088" height="1340" fill="white"/>
</clipPath>
</defs>
</svg>
