<svg width="1440" height="1024" viewBox="0 0 1440 1024" fill="none" xmlns="http://www.w3.org/2000/svg">
<g clip-path="url(#clip0_694_3485)">
<rect width="1440" height="1024" rx="8" fill="white"/>
<path d="M1126.58 592.567L1129.7 596.224L1134.4 595.309L1131.27 591.652L1126.58 592.567Z" fill="#FF74D4"/>
<path d="M1132.83 587.082L1135.96 590.739L1134.4 595.309L1131.27 591.652L1132.83 587.082Z" fill="#FF9EE1"/>
<path d="M1131.27 591.652L1132.83 587.082L1128.14 587.997L1126.58 592.567L1131.27 591.652Z" fill="#FFC7EE"/>
<path d="M1225.62 527.911L1229.87 531.636L1236 532.74L1231.75 529.016L1225.62 527.911Z" fill="#80ED99"/>
<path d="M1225.62 527.912L1234.73 521.226L1231.75 529.017L1225.62 527.912Z" fill="#99F1AD"/>
<path d="M1234.73 521.226L1236 532.74L1231.75 529.017L1234.73 521.226Z" fill="#CCF8D6"/>
<path d="M1029.27 484.082L1025.5 488.293L1024.26 494.471L1028.04 490.26L1029.27 484.082Z" fill="#FAE588"/>
<path d="M1029.27 484.082L1035.67 493.452L1028.04 490.26L1029.27 484.082Z" fill="#FBEAA0"/>
<path d="M1035.67 493.451L1024.26 494.471L1028.04 490.26L1035.67 493.451Z" fill="#FDF5CF"/>
<path d="M837.179 510.759L844.129 507.469L848.897 500.345L841.947 503.636L837.179 510.759Z" fill="#FF74D4"/>
<path d="M837.179 510.759L834 495.554L841.947 503.635L837.179 510.759Z" fill="#FF90DD"/>
<path d="M834 495.554L848.897 500.345L841.947 503.635L834 495.554Z" fill="#FFC7EE"/>
<path d="M947.305 565.837L949.962 569.492L954.417 568.991L951.762 565.338L947.305 565.837Z" fill="#FAD2E1"/>
<path d="M953.56 561.182L956.217 564.837L954.417 568.991L951.762 565.338L953.56 561.182Z" fill="#FBDFEA"/>
<path d="M951.762 565.338L953.56 561.182L949.105 561.683L947.305 565.837L951.762 565.338Z" fill="#FDEDF3"/>
<path d="M944.389 468.6L942.508 475.094L947.125 479.991L949.006 473.497L944.389 468.6Z" fill="#FAD2E1"/>
<path d="M955.506 471.896L953.625 478.391L947.125 479.99L949.006 473.496L955.506 471.896Z" fill="#FBDFEA"/>
<path d="M949.006 473.496L955.506 471.897L950.889 467L944.389 468.599L949.006 473.496Z" fill="#FDEDF3"/>
<path d="M1126.58 302.567L1129.7 306.224L1134.4 305.309L1131.27 301.652L1126.58 302.567Z" fill="#FF74D4"/>
<path d="M1132.83 297.082L1135.96 300.739L1134.4 305.309L1131.27 301.652L1132.83 297.082Z" fill="#FF9EE1"/>
<path d="M1131.27 301.652L1132.83 297.082L1128.14 297.997L1126.58 302.567L1131.27 301.652Z" fill="#FFC7EE"/>
<path d="M1225.62 237.911L1229.87 241.636L1236 242.74L1231.75 239.016L1225.62 237.911Z" fill="#80ED99"/>
<path d="M1225.62 237.912L1234.73 231.226L1231.75 239.017L1225.62 237.912Z" fill="#99F1AD"/>
<path d="M1234.73 231.226L1236 242.74L1231.75 239.017L1234.73 231.226Z" fill="#CCF8D6"/>
<path d="M1029.27 194.082L1025.5 198.293L1024.26 204.471L1028.04 200.26L1029.27 194.082Z" fill="#FAE588"/>
<path d="M1029.27 194.082L1035.67 203.452L1028.04 200.26L1029.27 194.082Z" fill="#FBEAA0"/>
<path d="M1035.67 203.451L1024.26 204.471L1028.04 200.26L1035.67 203.451Z" fill="#FDF5CF"/>
<path d="M837.179 220.759L844.129 217.469L848.897 210.345L841.947 213.636L837.179 220.759Z" fill="#FF74D4"/>
<path d="M837.179 220.759L834 205.554L841.947 213.635L837.179 220.759Z" fill="#FF90DD"/>
<path d="M834 205.554L848.897 210.345L841.947 213.635L834 205.554Z" fill="#FFC7EE"/>
<path d="M947.305 275.837L949.962 279.492L954.417 278.991L951.762 275.338L947.305 275.837Z" fill="#FAD2E1"/>
<path d="M953.56 271.182L956.217 274.837L954.417 278.991L951.762 275.338L953.56 271.182Z" fill="#FBDFEA"/>
<path d="M951.762 275.338L953.56 271.182L949.105 271.683L947.305 275.837L951.762 275.338Z" fill="#FDEDF3"/>
<path d="M944.389 178.6L942.508 185.094L947.125 189.991L949.006 183.497L944.389 178.6Z" fill="#FAD2E1"/>
<path d="M955.506 181.896L953.625 188.391L947.125 189.99L949.006 183.496L955.506 181.896Z" fill="#FBDFEA"/>
<path d="M949.006 183.496L955.506 181.897L950.889 177L944.389 178.599L949.006 183.496Z" fill="#FDEDF3"/>
<path d="M554.502 367.047L559.234 372.582L566.332 371.197L561.601 365.662L554.502 367.047Z" fill="#FF74D4"/>
<path d="M563.965 358.745L568.699 364.28L566.332 371.197L561.601 365.662L563.965 358.745Z" fill="#FF9EE1"/>
<path d="M561.601 365.662L563.965 358.745L556.866 360.13L554.502 367.047L561.601 365.662Z" fill="#FFC7EE"/>
<path d="M704.3 269.19L710.726 274.829L720 276.498L713.574 270.863L704.3 269.19Z" fill="#80ED99"/>
<path d="M704.3 269.191L718.073 259.071L713.574 270.863L704.3 269.191Z" fill="#99F1AD"/>
<path d="M718.073 259.071L720 276.499L713.574 270.863L718.073 259.071Z" fill="#CCF8D6"/>
<path d="M407.341 202.854L401.625 209.227L399.759 218.578L405.475 212.204L407.341 202.854Z" fill="#FAE588"/>
<path d="M407.341 202.854L417.008 217.035L405.475 212.204L407.341 202.854Z" fill="#FBEAA0"/>
<path d="M417.008 217.035L399.759 218.578L405.475 212.204L417.008 217.035Z" fill="#FDF5CF"/>
<path d="M116.808 243.231L127.32 238.25L134.531 227.468L124.019 232.449L116.808 243.231Z" fill="#FF74D4"/>
<path d="M116.808 243.231L112 220.217L124.019 232.449L116.808 243.231Z" fill="#FF90DD"/>
<path d="M112 220.217L134.531 227.468L124.019 232.449L112 220.217Z" fill="#FFC7EE"/>
<path d="M283.367 326.593L287.385 332.125L294.123 331.366L290.108 325.837L283.367 326.593Z" fill="#FAD2E1"/>
<path d="M292.827 319.546L296.846 325.078L294.123 331.366L290.108 325.837L292.827 319.546Z" fill="#FBDFEA"/>
<path d="M290.108 325.837L292.827 319.546L286.089 320.304L283.367 326.592L290.108 325.837Z" fill="#FDEDF3"/>
<path d="M278.956 179.421L276.111 189.25L283.094 196.662L285.94 186.832L278.956 179.421Z" fill="#FAD2E1"/>
<path d="M295.771 184.411L292.926 194.241L283.094 196.661L285.94 186.832L295.771 184.411Z" fill="#FBDFEA"/>
<path d="M285.94 186.832L295.771 184.412L288.787 177L278.956 179.42L285.94 186.832Z" fill="#FDEDF3"/>
</g>
<defs>
<clipPath id="clip0_694_3485">
<rect width="1440" height="1024" rx="8" fill="white"/>
</clipPath>
</defs>
</svg>
