<svg width="38" height="39" viewBox="0 0 38 39" fill="none" xmlns="http://www.w3.org/2000/svg">
<circle cx="19" cy="19.5" r="19" fill="#E5E5FE"/>
<path d="M27.5 16.2C26.45 11.58 22.42 9.5 18.88 9.5C18.88 9.5 18.88 9.5 18.87 9.5C15.34 9.5 11.3 11.57 10.25 16.19C9.07998 21.35 12.24 25.72 15.1 28.47C16.16 29.49 17.52 30 18.88 30C20.24 30 21.6 29.49 22.65 28.47C25.51 25.72 28.67 21.36 27.5 16.2ZM18.88 21.21C17.14 21.21 15.73 19.8 15.73 18.06C15.73 16.32 17.14 14.91 18.88 14.91C20.62 14.91 22.03 16.32 22.03 18.06C22.03 19.8 20.62 21.21 18.88 21.21Z" fill="#6F59DA"/>
</svg>
