<svg width="38" height="63" viewBox="0 0 38 63" fill="none" xmlns="http://www.w3.org/2000/svg">
<line x1="19.6072" y1="0.75" x2="19.6072" y2="22.25" stroke="#E3E3E3" stroke-width="1.5" stroke-linecap="round" stroke-dasharray="4 4"/>
<circle cx="19" cy="44" r="19" fill="#E5E5FE"/>
<path d="M27.5 40.7C26.45 36.08 22.42 34 18.88 34C18.88 34 18.88 34 18.87 34C15.34 34 11.3 36.07 10.25 40.69C9.07998 45.85 12.24 50.22 15.1 52.97C16.16 53.99 17.52 54.5 18.88 54.5C20.24 54.5 21.6 53.99 22.65 52.97C25.51 50.22 28.67 45.86 27.5 40.7ZM18.88 45.71C17.14 45.71 15.73 44.3 15.73 42.56C15.73 40.82 17.14 39.41 18.88 39.41C20.62 39.41 22.03 40.82 22.03 42.56C22.03 44.3 20.62 45.71 18.88 45.71Z" fill="#6F59DA"/>
</svg>
