<svg width="652" height="120" viewBox="0 0 652 120" fill="none" xmlns="http://www.w3.org/2000/svg">
<rect width="120.058" height="120" rx="24" fill="white"/>
<path d="M88.1891 32.9863C90.117 32.9863 91.6799 31.4224 91.6799 29.4932C91.6799 27.5639 90.117 26 88.1891 26C86.2612 26 84.6983 27.5639 84.6983 29.4932C84.6983 31.4224 86.2612 32.9863 88.1891 32.9863Z" fill="#6F59DA"/>
<path d="M43.1313 31.1233C48.872 31.1233 54.3927 33.2705 58.6335 37.1231C58.6355 37.1212 58.6375 37.1194 58.6396 37.1175C60.7836 39.0777 62.5506 41.4169 63.8508 44.0193C64.9934 46.3062 65.4624 49.006 65.7172 51.6714C64.8961 53.6325 64.419 55.8813 64.4179 58.2522C64.4189 61.6297 65.5072 64.9895 66.5956 68.3494C67.6746 71.6804 68.7537 75.0116 68.7732 78.36L68.7764 78.915C68.7764 84.6739 64.6007 89.3425 58.8789 89.3425C53.1572 89.3425 48.9815 84.6739 48.9815 78.915L48.9794 78.5582C48.9594 75.1526 50.0524 71.7573 51.1454 68.3619C51.9833 65.7591 52.8211 63.1563 53.1577 60.5488C53.2418 60.4577 53.2895 60.3333 53.28 60.1999C53.2691 60.046 53.2577 59.8912 53.2458 59.7358C53.2889 59.2415 53.312 58.7469 53.3118 58.2522C53.3136 54.6952 52.239 51.4114 50.5401 48.963C50.1784 48.4418 49.7747 47.941 49.3332 47.4766C48.1785 45.8261 46.8232 44.3197 45.2953 42.9935C42.8525 40.8733 40.0163 39.2553 36.9486 38.2319C33.9892 37.2446 30.8702 36.8293 27.7578 37.007C31.9813 33.2274 37.4485 31.1233 43.1313 31.1233Z" fill="url(#paint0_linear_164_1762)"/>
<path d="M66.4788 50.1062C66.7016 49.7086 66.9396 49.3275 67.1914 48.9647C68.8446 46.5829 71.3719 44.6301 74.3688 44.6301C77.3639 44.6284 79.893 46.5829 81.5444 48.963C83.2433 51.4114 84.3179 54.6952 84.3162 58.2522C84.3172 61.7458 83.0654 65.1612 81.8131 68.5778C80.601 71.8849 79.3885 75.193 79.3117 78.5738L79.1636 85.0864C79.1636 90.0093 83.5915 94 88.4827 94C93.3739 94 97.3362 90.0173 97.3309 85.0944C97.3263 80.9036 97.3085 74.6405 97.2868 68.7241C97.2564 60.4151 97.2184 52.7898 97.1991 52.5479C97.1991 46.9589 94.3971 41.8701 90.4964 37.9441C86.1573 33.5768 80.2721 31.1233 74.1356 31.1233C68.7113 31.1233 63.4833 33.0404 59.3459 36.5019C61.5389 38.5242 63.348 40.9299 64.6834 43.6028C65.6803 45.5981 66.1864 47.8635 66.4788 50.1062Z" fill="url(#paint1_linear_164_1762)"/>
<path d="M44.6276 43.6972C45.2118 44.2043 45.7698 44.7388 46.2999 45.2986C45.3731 44.8751 44.3692 44.6295 43.3066 44.6301C40.3098 44.6301 37.7825 46.5829 36.1292 48.9647C34.4303 51.4131 33.3575 54.6952 33.3557 58.2522C33.3568 61.8008 34.6572 65.2617 35.9581 68.7241C37.2046 72.0416 38.4516 75.3605 38.5565 78.759L38.7431 84.8017C38.7431 89.882 34.1886 94 29.141 94C24.0935 94 20.0045 89.8877 20.0101 84.8074C20.0149 80.4266 20.0042 67.7441 20.0042 67.7441C20.0042 67.7441 19.9916 52.7797 20.0101 52.5479C20.0101 46.9589 22.8121 41.8701 26.7128 37.9441C26.6267 38.0281 26.7977 37.8586 26.7128 37.9441C26.9512 37.9441 27.1961 37.9581 27.4244 37.9581C30.528 37.7375 33.6447 38.1308 36.5964 39.1155C39.5481 40.1003 42.2771 41.6571 44.6276 43.6972Z" fill="url(#paint2_linear_164_1762)"/>
<path d="M100.058 36.4795C100.058 38.4087 98.4949 39.9726 96.567 39.9726C94.6391 39.9726 93.0762 38.4087 93.0762 36.4795C93.0762 34.5502 94.6391 32.9863 96.567 32.9863C98.4949 32.9863 100.058 34.5502 100.058 36.4795Z" fill="#6F59DA"/>
<path d="M146.144 91.918C142.783 91.918 140.058 89.1933 140.058 85.8321V37.743C140.058 32.8057 144.06 28.8033 148.998 28.8033C152.41 28.8033 155.525 30.7463 157.026 33.8114L173.869 68.2049L190.543 33.8331C192.035 30.7567 195.154 28.8033 198.573 28.8033C203.503 28.8033 207.499 32.7994 207.499 37.7289V85.8321C207.499 89.1933 204.774 91.918 201.413 91.918C198.052 91.918 195.327 89.1933 195.327 85.8321V49.541L180.798 78.7577C179.48 81.4069 176.776 83.082 173.818 83.082C170.865 83.082 168.166 81.4137 166.845 78.7727L152.23 49.541V85.8321C152.23 89.1933 149.505 91.918 146.144 91.918Z" fill="#1C1C1C"/>
<path d="M241.467 93C236.898 93 232.841 92.0383 229.295 90.1148C225.809 88.1311 223.074 85.3962 221.09 81.9098C219.167 78.3634 218.205 74.276 218.205 69.6475C218.205 64.8989 219.167 60.7213 221.09 57.1148C223.014 53.4481 225.718 50.5929 229.205 48.5492C232.751 46.4454 236.838 45.3934 241.467 45.3934C245.975 45.3934 249.912 46.3852 253.278 48.3689C256.644 50.3525 259.259 53.0273 261.122 56.3934C262.985 59.7596 263.917 63.5765 263.917 67.8443C263.917 68.4454 263.917 69.1366 263.917 69.918C263.917 70.6393 263.857 71.3907 263.737 72.1721H226.86V64.7787H251.655C251.475 61.8333 250.423 59.5191 248.499 57.8361C246.636 56.153 244.292 55.3115 241.467 55.3115C239.423 55.3115 237.53 55.7923 235.786 56.7541C234.043 57.6557 232.661 59.0683 231.639 60.9918C230.677 62.9153 230.196 65.3497 230.196 68.2951V70.9098C230.196 73.3743 230.647 75.5382 231.549 77.4016C232.511 79.2049 233.833 80.6175 235.516 81.6393C237.199 82.6011 239.153 83.082 241.377 83.082C243.601 83.082 245.434 82.6011 246.876 81.6393C248.379 80.6776 249.491 79.4454 250.212 77.9426H262.655C261.813 80.7678 260.401 83.3224 258.417 85.6066C256.434 87.8907 253.999 89.694 251.114 91.0164C248.229 92.3388 245.013 93 241.467 93Z" fill="#1C1C1C"/>
<path d="M289.213 93C285.426 93 282.301 92.3989 279.836 91.1967C277.372 89.9344 275.538 88.2814 274.336 86.2377C273.194 84.1339 272.623 81.8197 272.623 79.2951C272.623 76.5301 273.314 74.0956 274.697 71.9918C276.14 69.888 278.273 68.235 281.098 67.0328C283.984 65.8306 287.59 65.2295 291.918 65.2295H303.188C303.188 63.0055 302.888 61.1721 302.286 59.7295C301.685 58.2268 300.754 57.1148 299.491 56.3934C298.229 55.6721 296.546 55.3115 294.442 55.3115C292.158 55.3115 290.205 55.8224 288.582 56.8443C287.019 57.806 286.057 59.3087 285.697 61.3525H273.886C274.186 58.1066 275.238 55.3115 277.041 52.9672C278.905 50.5628 281.339 48.6995 284.344 47.377C287.41 46.0546 290.806 45.3934 294.533 45.3934C298.8 45.3934 302.497 46.1148 305.622 47.5574C308.748 49 311.152 51.0738 312.835 53.7787C314.518 56.4836 315.36 59.8197 315.36 63.7869V91.918H305.082L303.729 84.9754C303.068 86.1776 302.286 87.2596 301.385 88.2213C300.483 89.1831 299.431 90.0246 298.229 90.7459C297.027 91.4672 295.675 92.0082 294.172 92.3689C292.669 92.7896 291.016 93 289.213 93ZM292.098 83.623C293.661 83.623 295.043 83.3525 296.246 82.8115C297.508 82.2104 298.59 81.429 299.491 80.4672C300.393 79.4454 301.084 78.3033 301.565 77.041C302.106 75.7186 302.467 74.306 302.647 72.8033V72.7131H293.36C291.497 72.7131 289.964 72.9536 288.762 73.4344C287.62 73.8552 286.779 74.4863 286.238 75.3279C285.697 76.1694 285.426 77.1311 285.426 78.2131C285.426 79.4153 285.697 80.4071 286.238 81.1885C286.779 81.9699 287.56 82.571 288.582 82.9918C289.604 83.4126 290.776 83.623 292.098 83.623Z" fill="#1C1C1C"/>
<path d="M332.801 91.918C329.439 91.918 326.715 89.1933 326.715 85.8321V33.0859C326.715 29.7248 329.439 27 332.801 27C336.162 27 338.887 29.7248 338.887 33.0859V85.8321C338.887 89.1933 336.162 91.918 332.801 91.918Z" fill="#1C1C1C"/>
<path d="M357.108 91.918C353.747 91.918 351.022 89.1933 351.022 85.8321V37.743C351.022 32.8057 355.025 28.8033 359.962 28.8033C363.375 28.8033 366.49 30.7463 367.991 33.8114L384.833 68.2049L401.507 33.8331C403 30.7567 406.119 28.8033 409.538 28.8033C414.467 28.8033 418.464 32.7994 418.464 37.7289V85.8321C418.464 89.1933 415.739 91.918 412.378 91.918C409.016 91.918 406.292 89.1933 406.292 85.8321V49.541L391.762 78.7577C390.445 81.4069 387.741 83.082 384.782 83.082C381.83 83.082 379.13 81.4137 377.81 78.7727L363.194 49.541V85.8321C363.194 89.1933 360.47 91.918 357.108 91.918Z" fill="#1C1C1C"/>
<path d="M445.94 93C442.153 93 439.027 92.3989 436.563 91.1967C434.098 89.9344 432.265 88.2814 431.063 86.2377C429.921 84.1339 429.35 81.8197 429.35 79.2951C429.35 76.5301 430.041 74.0956 431.424 71.9918C432.866 69.888 435 68.235 437.825 67.0328C440.71 65.8306 444.317 65.2295 448.645 65.2295H459.915C459.915 63.0055 459.614 61.1721 459.013 59.7295C458.412 58.2268 457.48 57.1148 456.218 56.3934C454.956 55.6721 453.273 55.3115 451.169 55.3115C448.885 55.3115 446.931 55.8224 445.309 56.8443C443.746 57.806 442.784 59.3087 442.423 61.3525H430.612C430.913 58.1066 431.965 55.3115 433.768 52.9672C435.631 50.5628 438.066 48.6995 441.071 47.377C444.136 46.0546 447.533 45.3934 451.259 45.3934C455.527 45.3934 459.224 46.1148 462.349 47.5574C465.475 49 467.879 51.0738 469.562 53.7787C471.245 56.4836 472.087 59.8197 472.087 63.7869V86.2829C472.087 89.3951 469.564 91.918 466.451 91.918C463.755 91.918 461.436 90.0074 460.92 87.3604L460.456 84.9754C459.795 86.1776 459.013 87.2596 458.112 88.2213C457.21 89.1831 456.158 90.0246 454.956 90.7459C453.754 91.4672 452.401 92.0082 450.899 92.3689C449.396 92.7896 447.743 93 445.94 93ZM448.825 83.623C450.388 83.623 451.77 83.3525 452.972 82.8115C454.235 82.2104 455.316 81.429 456.218 80.4672C457.12 79.4454 457.811 78.3033 458.292 77.041C458.833 75.7186 459.193 74.306 459.374 72.8033V72.7131H450.087C448.224 72.7131 446.691 72.9536 445.489 73.4344C444.347 73.8552 443.505 74.4863 442.964 75.3279C442.423 76.1694 442.153 77.1311 442.153 78.2131C442.153 79.4153 442.423 80.4071 442.964 81.1885C443.505 81.9699 444.287 82.571 445.309 82.9918C446.33 83.4126 447.502 83.623 448.825 83.623Z" fill="#1C1C1C"/>
<path d="M502.015 93C497.867 93 494.261 92.3388 491.195 91.0164C488.13 89.694 485.725 87.8607 483.982 85.5164C482.239 83.1721 481.247 80.5273 481.007 77.582H493.089C493.389 78.724 493.9 79.776 494.621 80.7377C495.343 81.6393 496.304 82.3607 497.507 82.9016C498.709 83.4426 500.151 83.7131 501.834 83.7131C503.457 83.7131 504.78 83.5027 505.801 83.082C506.823 82.6011 507.575 81.9699 508.056 81.1885C508.597 80.4071 508.867 79.5956 508.867 78.7541C508.867 77.4918 508.506 76.5301 507.785 75.8689C507.064 75.1475 506.012 74.5765 504.629 74.1557C503.247 73.735 501.564 73.3142 499.58 72.8934C497.416 72.4727 495.283 71.9618 493.179 71.3607C491.135 70.6995 489.302 69.888 487.679 68.9262C486.056 67.9645 484.764 66.7322 483.802 65.2295C482.84 63.7268 482.359 61.8634 482.359 59.6393C482.359 56.9344 483.081 54.5301 484.523 52.4262C485.966 50.2623 488.07 48.5492 490.835 47.2869C493.6 46.0246 496.936 45.3934 500.843 45.3934C506.312 45.3934 510.64 46.6257 513.826 49.0902C517.012 51.5546 518.905 54.9508 519.506 59.2787H508.056C507.695 57.8962 506.883 56.8142 505.621 56.0328C504.419 55.1913 502.796 54.7705 500.752 54.7705C498.589 54.7705 496.936 55.1612 495.794 55.9426C494.651 56.724 494.08 57.7459 494.08 59.0082C494.08 59.8497 494.441 60.6011 495.162 61.2623C495.944 61.9235 497.026 62.4945 498.408 62.9754C499.791 63.3962 501.474 63.8169 503.457 64.2377C506.944 64.959 510.009 65.8005 512.654 66.7623C515.299 67.6639 517.372 68.9863 518.875 70.7295C520.378 72.4126 521.129 74.877 521.129 78.123C521.129 81.0082 520.348 83.5929 518.785 85.877C517.222 88.1011 514.998 89.8443 512.113 91.1066C509.288 92.3689 505.922 93 502.015 93Z" fill="#1C1C1C"/>
<path d="M550.574 91.918C547.388 91.918 544.593 91.4372 542.189 90.4754C539.845 89.4535 538.011 87.8005 536.689 85.5164C535.367 83.1721 534.705 79.9863 534.705 75.959V56.6639H526.951V46.4754H534.705L535.501 39.207C535.818 36.3138 538.262 34.123 541.172 34.123C544.323 34.123 546.877 36.6772 546.877 39.8279V46.4754H558.869V56.6639H546.877V76.1393C546.877 78.1831 547.328 79.5956 548.23 80.377C549.131 81.1585 550.664 81.5492 552.828 81.5492H553.594C556.457 81.5492 558.779 83.8703 558.779 86.7336C558.779 89.5969 556.457 91.918 553.594 91.918H550.574Z" fill="#1C1C1C"/>
<path d="M589.787 93C585.219 93 581.162 92.0383 577.615 90.1148C574.129 88.1311 571.394 85.3962 569.411 81.9098C567.487 78.3634 566.525 74.276 566.525 69.6475C566.525 64.8989 567.487 60.7213 569.411 57.1148C571.334 53.4481 574.039 50.5929 577.525 48.5492C581.072 46.4454 585.159 45.3934 589.787 45.3934C594.295 45.3934 598.232 46.3852 601.598 48.3689C604.965 50.3525 607.579 53.0273 609.443 56.3934C611.306 59.7596 612.238 63.5765 612.238 67.8443C612.238 68.4454 612.238 69.1366 612.238 69.918C612.238 70.6393 612.177 71.3907 612.057 72.1721H575.181V64.7787H599.976C599.795 61.8333 598.743 59.5191 596.82 57.8361C594.957 56.153 592.612 55.3115 589.787 55.3115C587.744 55.3115 585.85 55.7923 584.107 56.7541C582.364 57.6557 580.981 59.0683 579.96 60.9918C578.998 62.9153 578.517 65.3497 578.517 68.2951V70.9098C578.517 73.3743 578.968 75.5382 579.869 77.4016C580.831 79.2049 582.154 80.6175 583.837 81.6393C585.52 82.6011 587.473 83.082 589.697 83.082C591.921 83.082 593.754 82.6011 595.197 81.6393C596.7 80.6776 597.812 79.4454 598.533 77.9426H610.975C610.134 80.7678 608.721 83.3224 606.738 85.6066C604.754 87.8907 602.32 89.694 599.435 91.0164C596.549 92.3388 593.334 93 589.787 93Z" fill="#1C1C1C"/>
<path d="M628.292 91.918C624.931 91.918 622.206 89.1933 622.206 85.8321V52.2614C622.206 49.0659 624.797 46.4754 627.992 46.4754C630.878 46.4754 633.323 48.6022 633.722 51.4604L634.198 54.8607C635.28 52.877 636.632 51.194 638.255 49.8115C639.938 48.429 641.831 47.347 643.935 46.5656C644.188 46.4744 644.443 46.3885 644.701 46.308C648.1 45.2478 651.058 48.2797 651.058 51.8402V54.1394C651.058 56.43 649.201 58.2869 646.91 58.2869C645.107 58.2869 643.424 58.4973 641.861 58.918C640.359 59.3388 639.036 60.0301 637.894 60.9918C636.752 61.8934 635.881 63.1557 635.28 64.7787C634.678 66.4016 634.378 68.4454 634.378 70.9098V85.8321C634.378 89.1933 631.653 91.918 628.292 91.918Z" fill="#1C1C1C"/>
<defs>
<linearGradient id="paint0_linear_164_1762" x1="34.8492" y1="16.9178" x2="60.0267" y2="94.0007" gradientUnits="userSpaceOnUse">
<stop stop-color="#EAC7FF"/>
<stop offset="0.434" stop-color="#6F59DA"/>
<stop offset="1" stop-color="#A562D8"/>
</linearGradient>
<linearGradient id="paint1_linear_164_1762" x1="61.5" y1="42.5" x2="107.5" y2="40.0021" gradientUnits="userSpaceOnUse">
<stop stop-color="#47029D"/>
<stop offset="0.246783" stop-color="#8C45D2"/>
<stop offset="0.742075" stop-color="#C07EEA"/>
</linearGradient>
<linearGradient id="paint2_linear_164_1762" x1="49.0554" y1="37.1781" x2="-2.60287" y2="75.2882" gradientUnits="userSpaceOnUse">
<stop offset="0.121762" stop-color="#45009C"/>
<stop offset="1" stop-color="#E09FFF"/>
</linearGradient>
</defs>
</svg>
