<svg width="19" height="19" viewBox="0 0 19 19" fill="none" xmlns="http://www.w3.org/2000/svg">
<path d="M17.6232 6.89658L14.714 3.98733C14.5725 3.85071 14.3831 3.77511 14.1864 3.77682C13.9898 3.77853 13.8017 3.85741 13.6626 3.99646C13.5235 4.13552 13.4447 4.32363 13.443 4.52028C13.4412 4.71692 13.5168 4.90638 13.6535 5.04783L16.5627 7.95708C16.6491 8.04522 16.7247 8.14343 16.7877 8.24958C16.7765 8.24958 16.7675 8.24358 16.7562 8.24358L4.99321 8.26758C4.7943 8.26758 4.60354 8.3466 4.46288 8.48725C4.32223 8.6279 4.24321 8.81867 4.24321 9.01758C4.24321 9.21649 4.32223 9.40726 4.46288 9.54791C4.60354 9.68856 4.7943 9.76758 4.99321 9.76758L16.7517 9.74358C16.7727 9.74358 16.79 9.73308 16.8102 9.73158C16.7437 9.85845 16.6593 9.97513 16.5597 10.0781L13.6505 12.9873C13.5788 13.0565 13.5217 13.1393 13.4824 13.2308C13.4431 13.3223 13.4224 13.4207 13.4215 13.5203C13.4207 13.6199 13.4396 13.7186 13.4773 13.8108C13.5151 13.903 13.5707 13.9867 13.6412 14.0571C13.7116 14.1275 13.7953 14.1832 13.8875 14.2209C13.9797 14.2587 14.0784 14.2776 14.178 14.2768C14.2776 14.2759 14.376 14.2552 14.4675 14.2159C14.559 14.1766 14.6418 14.1195 14.711 14.0478L17.6202 11.1386C18.1826 10.576 18.4986 9.81307 18.4986 9.01758C18.4986 8.22209 18.1826 7.45916 17.6202 6.89658H17.6232Z" fill="white"/>
<path d="M5.75146 16.5176H4.25146C3.65473 16.5176 3.08243 16.2805 2.66047 15.8586C2.23852 15.4366 2.00146 14.8643 2.00146 14.2676V3.76758C2.00146 3.17084 2.23852 2.59854 2.66047 2.17659C3.08243 1.75463 3.65473 1.51758 4.25146 1.51758H5.75146C5.95038 1.51758 6.14114 1.43856 6.28179 1.29791C6.42245 1.15726 6.50146 0.966491 6.50146 0.767578C6.50146 0.568666 6.42245 0.3779 6.28179 0.237248C6.14114 0.0965958 5.95038 0.0175781 5.75146 0.0175781H4.25146C3.25727 0.018769 2.30413 0.41424 1.60113 1.11724C0.898126 1.82025 0.502656 2.77338 0.501465 3.76758V14.2676C0.502656 15.2618 0.898126 16.2149 1.60113 16.9179C2.30413 17.6209 3.25727 18.0164 4.25146 18.0176H5.75146C5.95038 18.0176 6.14114 17.9386 6.28179 17.7979C6.42245 17.6573 6.50146 17.4665 6.50146 17.2676C6.50146 17.0687 6.42245 16.8779 6.28179 16.7372C6.14114 16.5966 5.95038 16.5176 5.75146 16.5176Z" fill="white"/>
</svg>
