<svg width="38" height="38" viewBox="0 0 38 38" fill="none" xmlns="http://www.w3.org/2000/svg">
<circle cx="19" cy="19" r="19" fill="#E5E5FE"/>
<path d="M27.5 15.7C26.45 11.08 22.42 9 18.88 9C18.88 9 18.88 9 18.87 9C15.34 9 11.3 11.07 10.25 15.69C9.07998 20.85 12.24 25.22 15.1 27.97C16.16 28.99 17.52 29.5 18.88 29.5C20.24 29.5 21.6 28.99 22.65 27.97C25.51 25.22 28.67 20.86 27.5 15.7ZM18.88 20.71C17.14 20.71 15.73 19.3 15.73 17.56C15.73 15.82 17.14 14.41 18.88 14.41C20.62 14.41 22.03 15.82 22.03 17.56C22.03 19.3 20.62 20.71 18.88 20.71Z" fill="#6F59DA"/>
</svg>
