<svg width="24" height="25" viewBox="0 0 24 25" fill="none" xmlns="http://www.w3.org/2000/svg">
<path d="M11.25 6.125V3.875C11.25 3.668 11.418 3.5 11.625 3.5C11.832 3.5 12 3.668 12 3.875V6.125C12 6.332 11.832 6.5 11.625 6.5C11.418 6.5 11.25 6.332 11.25 6.125ZM8.625 6.5C8.832 6.5 9 6.332 9 6.125V3.875C9 3.668 8.832 3.5 8.625 3.5C8.418 3.5 8.25 3.668 8.25 3.875V6.125C8.25 6.332 8.418 6.5 8.625 6.5ZM5.625 6.5C5.832 6.5 6 6.332 6 6.125V3.875C6 3.668 5.832 3.5 5.625 3.5C5.418 3.5 5.25 3.668 5.25 3.875V6.125C5.25 6.332 5.418 6.5 5.625 6.5ZM12.1793 9.0095L12.1852 9.0065C12.1755 9.00275 12.1605 8.999 12.1793 9.0095ZM21 17.1252C21 21.074 13.0605 21.5 9.64725 21.5C8.9895 21.5 7.7685 21.3717 6.0195 21.119C4.2975 20.8708 3 19.349 3 17.579V15.5248C3 11.8505 5.87775 8.81225 9.41475 8.7515C10.3035 8.73575 11.3108 8.8505 12.1793 9.0095C12.1965 9.0125 12.1927 9.0095 12.1852 9.0065C13.8345 8.168 15.9225 7.589 17.1097 8.35925L18.3412 7.12775C18.1357 6.99425 18 6.7625 18 6.49925C18 6.08525 18.336 5.74925 18.75 5.74925C19.164 5.74925 19.5 6.08525 19.5 6.49925C19.914 6.49925 20.25 6.83525 20.25 7.24925C20.25 7.66325 19.914 7.99925 19.5 7.99925C19.2367 7.99925 19.005 7.8635 18.8715 7.658L17.64 8.8895C18.039 9.51275 18.1057 10.4458 17.8342 11.5955C19.8195 13.214 21 15.2727 21 17.1252ZM10.6635 10.9257C10.0748 11.5153 9.75 12.2983 9.75 13.1307C9.75 13.9632 10.0748 14.747 10.6635 15.3358C11.88 16.5523 13.8593 16.5515 15.0743 15.3358C15.741 14.669 16.4948 13.343 16.9065 12.1115C17.3775 10.7052 17.3647 9.617 16.8735 9.12575C16.6215 8.8745 16.2135 8.7485 15.687 8.7485C15.1845 8.7485 14.574 8.86325 13.8878 9.09275C12.6563 9.5045 11.331 10.259 10.6635 10.9257ZM20.25 17.1245C20.25 15.5705 19.2698 13.823 17.6063 12.3845C17.1525 13.7247 16.35 15.1213 15.6045 15.8668C14.85 16.6205 13.86 16.9977 12.8693 16.9977C11.8785 16.9977 10.8877 16.6205 10.134 15.8668C8.625 14.3585 8.625 11.9038 10.134 10.3955C10.3822 10.1465 10.74 9.86825 11.1667 9.5915C10.5907 9.52325 10.0073 9.49325 9.42825 9.5015C6.297 9.55475 3.75075 12.257 3.75075 15.5248V17.579C3.75075 18.9785 4.77225 20.1815 6.1275 20.3765C7.81725 20.621 9.0345 20.75 9.648 20.75C14.7735 20.75 20.2507 19.7975 20.2507 17.1252L20.25 17.1245Z" stroke="black" stroke-width="1"/>
</svg>
