<svg width="16" height="18" viewBox="0 0 16 18" fill="none" xmlns="http://www.w3.org/2000/svg">
<path d="M0.286297 13.251C0.872199 14.2679 2.17154 14.6172 3.18842 14.0313C3.18911 14.0309 3.18978 14.0305 3.19047 14.0301L3.50567 13.8481C4.10067 14.3571 4.78459 14.7519 5.52299 15.0126V15.376C5.52299 16.5496 6.4744 17.501 7.64799 17.501C8.82159 17.501 9.773 16.5496 9.773 15.376V15.0126C10.5115 14.7515 11.1955 14.3563 11.7903 13.8467L12.1069 14.0294C13.1241 14.6162 14.4243 14.2674 15.0111 13.2502C15.5979 12.2331 15.2491 10.9329 14.2319 10.3461L13.9174 10.1647C14.059 9.3944 14.059 8.6047 13.9174 7.83432L14.2319 7.653C15.2491 7.0662 15.5979 5.76596 15.0111 4.74882C14.4243 3.73171 13.1241 3.38284 12.1069 3.96964L11.7917 4.15169C11.1961 3.64325 10.5118 3.2492 9.773 2.98935V2.62598C9.773 1.45238 8.82159 0.500977 7.64799 0.500977C6.4744 0.500977 5.52299 1.45238 5.52299 2.62598V2.98935C4.78449 3.25043 4.10054 3.64568 3.50567 4.15528L3.18905 3.97183C2.1719 3.385 0.871668 3.73387 0.284869 4.75098C-0.30193 5.76809 0.0469023 7.06836 1.06405 7.65515L1.37855 7.83648C1.23697 8.60682 1.23697 9.39653 1.37855 10.1669L1.06405 10.3482C0.0497246 10.9366 -0.297979 12.2343 0.286297 13.251ZM7.64799 6.16765C9.21279 6.16765 10.4813 7.43618 10.4813 9.00098C10.4813 10.5658 9.21279 11.8343 7.64799 11.8343C6.0832 11.8343 4.81467 10.5658 4.81467 9.00098C4.81467 7.43618 6.0832 6.16765 7.64799 6.16765Z" fill="black" fill-opacity=".9"/>
</svg>
