<svg width="18" height="19" viewBox="0 0 18 19" fill="none" xmlns="http://www.w3.org/2000/svg">
<path d="M7.79049 7.1053C8.94071 5.93111 12.1235 4.46974 13.7242 5.18506L14.8019 4.10534C14.6087 3.99954 14.4509 3.83917 14.348 3.64419C14.2451 3.44921 14.2017 3.22821 14.2232 3.00871C14.2446 2.7892 14.3301 2.58087 14.4688 2.40963C14.6075 2.23839 14.7935 2.1118 15.0035 2.04561C15.2135 1.97942 15.4382 1.97656 15.6498 2.03737C15.8614 2.09818 16.0505 2.21999 16.1936 2.38764C16.3366 2.55528 16.4273 2.76137 16.4544 2.98026C16.4814 3.19915 16.4436 3.42117 16.3457 3.61872C16.5429 3.52062 16.7645 3.48277 16.983 3.50987C17.2014 3.53698 17.4071 3.62785 17.5744 3.77117C17.7418 3.91449 17.8633 4.10394 17.924 4.31595C17.9847 4.52796 17.9819 4.75317 17.9158 4.96357C17.8497 5.17396 17.7234 5.36025 17.5525 5.49926C17.3816 5.63827 17.1736 5.72386 16.9546 5.74539C16.7355 5.76692 16.5149 5.72343 16.3203 5.62033C16.1257 5.51724 15.9656 5.35909 15.86 5.16556L14.7794 6.24828C15.5135 8.04031 13.9562 11.1025 12.8674 12.192C9.42939 15.4589 4.53139 10.5484 7.79049 7.1053ZM13.927 13.2537C8.81499 18.0232 1.87846 10.5027 7.03465 5.7699C6.1255 5.72318 5.21639 5.8628 4.36296 6.18022C3.50952 6.49765 2.7297 6.98621 2.07121 7.616C1.41272 8.2458 0.889399 9.00358 0.53328 9.843C0.17716 10.6824 -0.00427492 11.5858 7.64543e-05 12.4979V14.4234C0.125801 18.4056 4.28293 18.3524 6.7353 18.4963C13.4705 18.608 21.8866 16.7635 16.0269 9.66588C15.5907 10.9984 14.8738 12.2214 13.9248 13.2522L13.927 13.2537Z" fill="white"/>
<path d="M8 0.876099V3.1261C8 3.3331 8.168 3.5011 8.375 3.5011C8.582 3.5011 8.75 3.3331 8.75 3.1261V0.876099C8.75 0.669099 8.582 0.501099 8.375 0.501099C8.168 0.501099 8 0.669099 8 0.876099Z" fill="white"/>
<path d="M5.75 3.1261C5.75 3.3331 5.582 3.5011 5.375 3.5011C5.168 3.5011 5 3.3331 5 3.1261V0.876099C5 0.669099 5.168 0.501099 5.375 0.501099C5.582 0.501099 5.75 0.669099 5.75 0.876099V3.1261Z" fill="white"/>
<path d="M2.75 3.1261C2.75 3.3331 2.582 3.5011 2.375 3.5011C2.168 3.5011 2 3.3331 2 3.1261V0.876099C2 0.669099 2.168 0.501099 2.375 0.501099C2.582 0.501099 2.75 0.669099 2.75 0.876099V3.1261Z" fill="white"/>
</svg>
