<svg width="353" height="48" viewBox="0 0 353 48" fill="none" xmlns="http://www.w3.org/2000/svg">
<rect x="0.5" y="0.5" width="352" height="47" rx="7.5" stroke="#AEAEAE" stroke-dasharray="2 2"/>
<path d="M105.742 17.625V29H104.227L98.5 20.2266V29H96.9922V17.625H98.5L104.25 26.4219V17.625H105.742ZM107.812 24.8672V24.6875C107.812 24.0781 107.901 23.513 108.078 22.9922C108.255 22.4661 108.51 22.0104 108.844 21.625C109.177 21.2344 109.581 20.9323 110.055 20.7188C110.529 20.5 111.06 20.3906 111.648 20.3906C112.242 20.3906 112.776 20.5 113.25 20.7188C113.729 20.9323 114.135 21.2344 114.469 21.625C114.807 22.0104 115.065 22.4661 115.242 22.9922C115.419 23.513 115.508 24.0781 115.508 24.6875V24.8672C115.508 25.4766 115.419 26.0417 115.242 26.5625C115.065 27.0833 114.807 27.5391 114.469 27.9297C114.135 28.3151 113.732 28.6172 113.258 28.8359C112.789 29.0495 112.258 29.1562 111.664 29.1562C111.07 29.1562 110.536 29.0495 110.062 28.8359C109.589 28.6172 109.182 28.3151 108.844 27.9297C108.51 27.5391 108.255 27.0833 108.078 26.5625C107.901 26.0417 107.812 25.4766 107.812 24.8672ZM109.258 24.6875V24.8672C109.258 25.2891 109.307 25.6875 109.406 26.0625C109.505 26.4323 109.654 26.7604 109.852 27.0469C110.055 27.3333 110.307 27.5599 110.609 27.7266C110.911 27.888 111.263 27.9688 111.664 27.9688C112.06 27.9688 112.406 27.888 112.703 27.7266C113.005 27.5599 113.255 27.3333 113.453 27.0469C113.651 26.7604 113.799 26.4323 113.898 26.0625C114.003 25.6875 114.055 25.2891 114.055 24.8672V24.6875C114.055 24.2708 114.003 23.8776 113.898 23.5078C113.799 23.1328 113.648 22.8021 113.445 22.5156C113.247 22.224 112.997 21.9948 112.695 21.8281C112.398 21.6615 112.049 21.5781 111.648 21.5781C111.253 21.5781 110.904 21.6615 110.602 21.8281C110.305 21.9948 110.055 22.224 109.852 22.5156C109.654 22.8021 109.505 23.1328 109.406 23.5078C109.307 23.8776 109.258 24.2708 109.258 24.6875ZM125.719 18.6328L121.953 29H120.414L124.75 17.625H125.742L125.719 18.6328ZM128.875 29L125.102 18.6328L125.078 17.625H126.07L130.422 29H128.875ZM128.68 24.7891V26.0234H122.289V24.7891H128.68ZM133.906 27.6953L136.219 20.5469H137.695L134.656 29H133.688L133.906 27.6953ZM131.977 20.5469L134.359 27.7344L134.523 29H133.555L130.492 20.5469H131.977ZM143.945 27.5547V23.2031C143.945 22.8698 143.878 22.5807 143.742 22.3359C143.612 22.0859 143.414 21.8932 143.148 21.7578C142.883 21.6224 142.555 21.5547 142.164 21.5547C141.799 21.5547 141.479 21.6172 141.203 21.7422C140.932 21.8672 140.719 22.0312 140.562 22.2344C140.411 22.4375 140.336 22.6562 140.336 22.8906H138.891C138.891 22.5885 138.969 22.2891 139.125 21.9922C139.281 21.6953 139.505 21.4271 139.797 21.1875C140.094 20.9427 140.448 20.75 140.859 20.6094C141.276 20.4635 141.74 20.3906 142.25 20.3906C142.865 20.3906 143.406 20.4948 143.875 20.7031C144.349 20.9115 144.719 21.2266 144.984 21.6484C145.255 22.0651 145.391 22.5885 145.391 23.2188V27.1562C145.391 27.4375 145.414 27.737 145.461 28.0547C145.513 28.3724 145.589 28.6458 145.688 28.875V29H144.18C144.107 28.8333 144.049 28.612 144.008 28.3359C143.966 28.0547 143.945 27.7943 143.945 27.5547ZM144.195 23.875L144.211 24.8906H142.75C142.339 24.8906 141.971 24.9245 141.648 24.9922C141.326 25.0547 141.055 25.151 140.836 25.2812C140.617 25.4115 140.451 25.5755 140.336 25.7734C140.221 25.9661 140.164 26.1927 140.164 26.4531C140.164 26.7188 140.224 26.9609 140.344 27.1797C140.464 27.3984 140.643 27.5729 140.883 27.7031C141.128 27.8281 141.427 27.8906 141.781 27.8906C142.224 27.8906 142.615 27.7969 142.953 27.6094C143.292 27.4219 143.56 27.1927 143.758 26.9219C143.961 26.651 144.07 26.388 144.086 26.1328L144.703 26.8281C144.667 27.0469 144.568 27.2891 144.406 27.5547C144.245 27.8203 144.029 28.0755 143.758 28.3203C143.492 28.5599 143.174 28.7604 142.805 28.9219C142.44 29.0781 142.029 29.1562 141.57 29.1562C140.997 29.1562 140.495 29.0443 140.062 28.8203C139.635 28.5964 139.302 28.2969 139.062 27.9219C138.828 27.5417 138.711 27.1172 138.711 26.6484C138.711 26.1953 138.799 25.7969 138.977 25.4531C139.154 25.1042 139.409 24.8151 139.742 24.5859C140.076 24.3516 140.477 24.1745 140.945 24.0547C141.414 23.9349 141.938 23.875 142.516 23.875H144.195ZM149.234 20.5469V29H147.781V20.5469H149.234ZM147.672 18.3047C147.672 18.0703 147.742 17.8724 147.883 17.7109C148.029 17.5495 148.242 17.4688 148.523 17.4688C148.799 17.4688 149.01 17.5495 149.156 17.7109C149.307 17.8724 149.383 18.0703 149.383 18.3047C149.383 18.5286 149.307 18.7214 149.156 18.8828C149.01 19.0391 148.799 19.1172 148.523 19.1172C148.242 19.1172 148.029 19.0391 147.883 18.8828C147.742 18.7214 147.672 18.5286 147.672 18.3047ZM153.125 17V29H151.672V17H153.125ZM160.43 27.5547V23.2031C160.43 22.8698 160.362 22.5807 160.227 22.3359C160.096 22.0859 159.898 21.8932 159.633 21.7578C159.367 21.6224 159.039 21.5547 158.648 21.5547C158.284 21.5547 157.964 21.6172 157.688 21.7422C157.417 21.8672 157.203 22.0312 157.047 22.2344C156.896 22.4375 156.82 22.6562 156.82 22.8906H155.375C155.375 22.5885 155.453 22.2891 155.609 21.9922C155.766 21.6953 155.99 21.4271 156.281 21.1875C156.578 20.9427 156.932 20.75 157.344 20.6094C157.76 20.4635 158.224 20.3906 158.734 20.3906C159.349 20.3906 159.891 20.4948 160.359 20.7031C160.833 20.9115 161.203 21.2266 161.469 21.6484C161.74 22.0651 161.875 22.5885 161.875 23.2188V27.1562C161.875 27.4375 161.898 27.737 161.945 28.0547C161.997 28.3724 162.073 28.6458 162.172 28.875V29H160.664C160.591 28.8333 160.534 28.612 160.492 28.3359C160.451 28.0547 160.43 27.7943 160.43 27.5547ZM160.68 23.875L160.695 24.8906H159.234C158.823 24.8906 158.456 24.9245 158.133 24.9922C157.81 25.0547 157.539 25.151 157.32 25.2812C157.102 25.4115 156.935 25.5755 156.82 25.7734C156.706 25.9661 156.648 26.1927 156.648 26.4531C156.648 26.7188 156.708 26.9609 156.828 27.1797C156.948 27.3984 157.128 27.5729 157.367 27.7031C157.612 27.8281 157.911 27.8906 158.266 27.8906C158.708 27.8906 159.099 27.7969 159.438 27.6094C159.776 27.4219 160.044 27.1927 160.242 26.9219C160.445 26.651 160.555 26.388 160.57 26.1328L161.188 26.8281C161.151 27.0469 161.052 27.2891 160.891 27.5547C160.729 27.8203 160.513 28.0755 160.242 28.3203C159.977 28.5599 159.659 28.7604 159.289 28.9219C158.924 29.0781 158.513 29.1562 158.055 29.1562C157.482 29.1562 156.979 29.0443 156.547 28.8203C156.12 28.5964 155.786 28.2969 155.547 27.9219C155.312 27.5417 155.195 27.1172 155.195 26.6484C155.195 26.1953 155.284 25.7969 155.461 25.4531C155.638 25.1042 155.893 24.8151 156.227 24.5859C156.56 24.3516 156.961 24.1745 157.43 24.0547C157.898 23.9349 158.422 23.875 159 23.875H160.68ZM164.141 17H165.594V27.3594L165.469 29H164.141V17ZM171.305 24.7031V24.8672C171.305 25.4818 171.232 26.0521 171.086 26.5781C170.94 27.099 170.727 27.5521 170.445 27.9375C170.164 28.3229 169.82 28.6224 169.414 28.8359C169.008 29.0495 168.542 29.1562 168.016 29.1562C167.479 29.1562 167.008 29.0651 166.602 28.8828C166.201 28.6953 165.862 28.4271 165.586 28.0781C165.31 27.7292 165.089 27.3073 164.922 26.8125C164.76 26.3177 164.648 25.7604 164.586 25.1406V24.4219C164.648 23.7969 164.76 23.237 164.922 22.7422C165.089 22.2474 165.31 21.8255 165.586 21.4766C165.862 21.1224 166.201 20.8542 166.602 20.6719C167.003 20.4844 167.469 20.3906 168 20.3906C168.531 20.3906 169.003 20.4948 169.414 20.7031C169.826 20.9062 170.169 21.1979 170.445 21.5781C170.727 21.9583 170.94 22.4141 171.086 22.9453C171.232 23.4714 171.305 24.0573 171.305 24.7031ZM169.852 24.8672V24.7031C169.852 24.2812 169.812 23.8854 169.734 23.5156C169.656 23.1406 169.531 22.8125 169.359 22.5312C169.188 22.2448 168.961 22.0208 168.68 21.8594C168.398 21.6927 168.052 21.6094 167.641 21.6094C167.276 21.6094 166.958 21.6719 166.688 21.7969C166.422 21.9219 166.195 22.0911 166.008 22.3047C165.82 22.513 165.667 22.7526 165.547 23.0234C165.432 23.2891 165.346 23.5651 165.289 23.8516V25.7344C165.372 26.099 165.508 26.4505 165.695 26.7891C165.888 27.1224 166.143 27.3958 166.461 27.6094C166.784 27.8229 167.182 27.9297 167.656 27.9297C168.047 27.9297 168.38 27.8516 168.656 27.6953C168.938 27.5339 169.164 27.3125 169.336 27.0312C169.513 26.75 169.643 26.4245 169.727 26.0547C169.81 25.6849 169.852 25.2891 169.852 24.8672ZM174.703 17V29H173.25V17H174.703ZM180.531 29.1562C179.943 29.1562 179.409 29.0573 178.93 28.8594C178.456 28.6562 178.047 28.3724 177.703 28.0078C177.365 27.6432 177.104 27.2109 176.922 26.7109C176.74 26.2109 176.648 25.6641 176.648 25.0703V24.7422C176.648 24.0547 176.75 23.4427 176.953 22.9062C177.156 22.3646 177.432 21.9062 177.781 21.5312C178.13 21.1562 178.526 20.8724 178.969 20.6797C179.411 20.487 179.87 20.3906 180.344 20.3906C180.948 20.3906 181.469 20.4948 181.906 20.7031C182.349 20.9115 182.711 21.2031 182.992 21.5781C183.273 21.9479 183.482 22.3854 183.617 22.8906C183.753 23.3906 183.82 23.9375 183.82 24.5312V25.1797H177.508V24H182.375V23.8906C182.354 23.5156 182.276 23.151 182.141 22.7969C182.01 22.4427 181.802 22.151 181.516 21.9219C181.229 21.6927 180.839 21.5781 180.344 21.5781C180.016 21.5781 179.714 21.6484 179.438 21.7891C179.161 21.9245 178.924 22.1276 178.727 22.3984C178.529 22.6693 178.375 23 178.266 23.3906C178.156 23.7812 178.102 24.2318 178.102 24.7422V25.0703C178.102 25.4714 178.156 25.849 178.266 26.2031C178.38 26.5521 178.544 26.8594 178.758 27.125C178.977 27.3906 179.24 27.599 179.547 27.75C179.859 27.901 180.214 27.9766 180.609 27.9766C181.12 27.9766 181.552 27.8724 181.906 27.6641C182.26 27.4557 182.57 27.1771 182.836 26.8281L183.711 27.5234C183.529 27.7995 183.297 28.0625 183.016 28.3125C182.734 28.5625 182.388 28.7656 181.977 28.9219C181.57 29.0781 181.089 29.1562 180.531 29.1562ZM192.773 29H190.398L190.414 27.7734H192.773C193.586 27.7734 194.263 27.6042 194.805 27.2656C195.346 26.9219 195.753 26.4427 196.023 25.8281C196.299 25.2083 196.438 24.4844 196.438 23.6562V22.9609C196.438 22.3099 196.359 21.7318 196.203 21.2266C196.047 20.7161 195.818 20.2865 195.516 19.9375C195.214 19.5833 194.844 19.3151 194.406 19.1328C193.974 18.9505 193.477 18.8594 192.914 18.8594H190.352V17.625H192.914C193.659 17.625 194.339 17.75 194.953 18C195.568 18.2448 196.096 18.6016 196.539 19.0703C196.987 19.5339 197.331 20.0964 197.57 20.7578C197.81 21.4141 197.93 22.1536 197.93 22.9766V23.6562C197.93 24.4792 197.81 25.2214 197.57 25.8828C197.331 26.5391 196.984 27.099 196.531 27.5625C196.083 28.026 195.542 28.3828 194.906 28.6328C194.276 28.8776 193.565 29 192.773 29ZM191.203 17.625V29H189.695V17.625H191.203ZM203.484 29.1562C202.896 29.1562 202.362 29.0573 201.883 28.8594C201.409 28.6562 201 28.3724 200.656 28.0078C200.318 27.6432 200.057 27.2109 199.875 26.7109C199.693 26.2109 199.602 25.6641 199.602 25.0703V24.7422C199.602 24.0547 199.703 23.4427 199.906 22.9062C200.109 22.3646 200.385 21.9062 200.734 21.5312C201.083 21.1562 201.479 20.8724 201.922 20.6797C202.365 20.487 202.823 20.3906 203.297 20.3906C203.901 20.3906 204.422 20.4948 204.859 20.7031C205.302 20.9115 205.664 21.2031 205.945 21.5781C206.227 21.9479 206.435 22.3854 206.57 22.8906C206.706 23.3906 206.773 23.9375 206.773 24.5312V25.1797H200.461V24H205.328V23.8906C205.307 23.5156 205.229 23.151 205.094 22.7969C204.964 22.4427 204.755 22.151 204.469 21.9219C204.182 21.6927 203.792 21.5781 203.297 21.5781C202.969 21.5781 202.667 21.6484 202.391 21.7891C202.115 21.9245 201.878 22.1276 201.68 22.3984C201.482 22.6693 201.328 23 201.219 23.3906C201.109 23.7812 201.055 24.2318 201.055 24.7422V25.0703C201.055 25.4714 201.109 25.849 201.219 26.2031C201.333 26.5521 201.497 26.8594 201.711 27.125C201.93 27.3906 202.193 27.599 202.5 27.75C202.812 27.901 203.167 27.9766 203.562 27.9766C204.073 27.9766 204.505 27.8724 204.859 27.6641C205.214 27.4557 205.523 27.1771 205.789 26.8281L206.664 27.5234C206.482 27.7995 206.25 28.0625 205.969 28.3125C205.688 28.5625 205.341 28.7656 204.93 28.9219C204.523 29.0781 204.042 29.1562 203.484 29.1562ZM210.031 17V29H208.578V17H210.031ZM213.922 20.5469V29H212.469V20.5469H213.922ZM212.359 18.3047C212.359 18.0703 212.43 17.8724 212.57 17.7109C212.716 17.5495 212.93 17.4688 213.211 17.4688C213.487 17.4688 213.698 17.5495 213.844 17.7109C213.995 17.8724 214.07 18.0703 214.07 18.3047C214.07 18.5286 213.995 18.7214 213.844 18.8828C213.698 19.0391 213.487 19.1172 213.211 19.1172C212.93 19.1172 212.716 19.0391 212.57 18.8828C212.43 18.7214 212.359 18.5286 212.359 18.3047ZM218.812 27.6953L221.125 20.5469H222.602L219.562 29H218.594L218.812 27.6953ZM216.883 20.5469L219.266 27.7344L219.43 29H218.461L215.398 20.5469H216.883ZM227.391 29.1562C226.802 29.1562 226.268 29.0573 225.789 28.8594C225.315 28.6562 224.906 28.3724 224.562 28.0078C224.224 27.6432 223.964 27.2109 223.781 26.7109C223.599 26.2109 223.508 25.6641 223.508 25.0703V24.7422C223.508 24.0547 223.609 23.4427 223.812 22.9062C224.016 22.3646 224.292 21.9062 224.641 21.5312C224.99 21.1562 225.385 20.8724 225.828 20.6797C226.271 20.487 226.729 20.3906 227.203 20.3906C227.807 20.3906 228.328 20.4948 228.766 20.7031C229.208 20.9115 229.57 21.2031 229.852 21.5781C230.133 21.9479 230.341 22.3854 230.477 22.8906C230.612 23.3906 230.68 23.9375 230.68 24.5312V25.1797H224.367V24H229.234V23.8906C229.214 23.5156 229.135 23.151 229 22.7969C228.87 22.4427 228.661 22.151 228.375 21.9219C228.089 21.6927 227.698 21.5781 227.203 21.5781C226.875 21.5781 226.573 21.6484 226.297 21.7891C226.021 21.9245 225.784 22.1276 225.586 22.3984C225.388 22.6693 225.234 23 225.125 23.3906C225.016 23.7812 224.961 24.2318 224.961 24.7422V25.0703C224.961 25.4714 225.016 25.849 225.125 26.2031C225.24 26.5521 225.404 26.8594 225.617 27.125C225.836 27.3906 226.099 27.599 226.406 27.75C226.719 27.901 227.073 27.9766 227.469 27.9766C227.979 27.9766 228.411 27.8724 228.766 27.6641C229.12 27.4557 229.43 27.1771 229.695 26.8281L230.57 27.5234C230.388 27.7995 230.156 28.0625 229.875 28.3125C229.594 28.5625 229.247 28.7656 228.836 28.9219C228.43 29.0781 227.948 29.1562 227.391 29.1562ZM233.812 21.875V29H232.367V20.5469H233.773L233.812 21.875ZM236.453 20.5L236.445 21.8438C236.326 21.8177 236.211 21.8021 236.102 21.7969C235.997 21.7865 235.878 21.7812 235.742 21.7812C235.409 21.7812 235.115 21.8333 234.859 21.9375C234.604 22.0417 234.388 22.1875 234.211 22.375C234.034 22.5625 233.893 22.7865 233.789 23.0469C233.69 23.3021 233.625 23.5833 233.594 23.8906L233.188 24.125C233.188 23.6146 233.237 23.1354 233.336 22.6875C233.44 22.2396 233.599 21.8438 233.812 21.5C234.026 21.151 234.297 20.8802 234.625 20.6875C234.958 20.4896 235.354 20.3906 235.812 20.3906C235.917 20.3906 236.036 20.4036 236.172 20.4297C236.307 20.4505 236.401 20.474 236.453 20.5ZM239.359 20.5469V29H237.906V20.5469H239.359ZM237.797 18.3047C237.797 18.0703 237.867 17.8724 238.008 17.7109C238.154 17.5495 238.367 17.4688 238.648 17.4688C238.924 17.4688 239.135 17.5495 239.281 17.7109C239.432 17.8724 239.508 18.0703 239.508 18.3047C239.508 18.5286 239.432 18.7214 239.281 18.8828C239.135 19.0391 238.924 19.1172 238.648 19.1172C238.367 19.1172 238.154 19.0391 238.008 18.8828C237.867 18.7214 237.797 18.5286 237.797 18.3047ZM245.188 29.1562C244.599 29.1562 244.065 29.0573 243.586 28.8594C243.112 28.6562 242.703 28.3724 242.359 28.0078C242.021 27.6432 241.76 27.2109 241.578 26.7109C241.396 26.2109 241.305 25.6641 241.305 25.0703V24.7422C241.305 24.0547 241.406 23.4427 241.609 22.9062C241.812 22.3646 242.089 21.9062 242.438 21.5312C242.786 21.1562 243.182 20.8724 243.625 20.6797C244.068 20.487 244.526 20.3906 245 20.3906C245.604 20.3906 246.125 20.4948 246.562 20.7031C247.005 20.9115 247.367 21.2031 247.648 21.5781C247.93 21.9479 248.138 22.3854 248.273 22.8906C248.409 23.3906 248.477 23.9375 248.477 24.5312V25.1797H242.164V24H247.031V23.8906C247.01 23.5156 246.932 23.151 246.797 22.7969C246.667 22.4427 246.458 22.151 246.172 21.9219C245.885 21.6927 245.495 21.5781 245 21.5781C244.672 21.5781 244.37 21.6484 244.094 21.7891C243.818 21.9245 243.581 22.1276 243.383 22.3984C243.185 22.6693 243.031 23 242.922 23.3906C242.812 23.7812 242.758 24.2318 242.758 24.7422V25.0703C242.758 25.4714 242.812 25.849 242.922 26.2031C243.036 26.5521 243.201 26.8594 243.414 27.125C243.633 27.3906 243.896 27.599 244.203 27.75C244.516 27.901 244.87 27.9766 245.266 27.9766C245.776 27.9766 246.208 27.8724 246.562 27.6641C246.917 27.4557 247.227 27.1771 247.492 26.8281L248.367 27.5234C248.185 27.7995 247.953 28.0625 247.672 28.3125C247.391 28.5625 247.044 28.7656 246.633 28.9219C246.227 29.0781 245.745 29.1562 245.188 29.1562ZM255.086 26.7578C255.086 26.5495 255.039 26.3568 254.945 26.1797C254.857 25.9974 254.672 25.8333 254.391 25.6875C254.115 25.5365 253.698 25.4062 253.141 25.2969C252.672 25.1979 252.247 25.0807 251.867 24.9453C251.492 24.8099 251.172 24.6458 250.906 24.4531C250.646 24.2604 250.445 24.0339 250.305 23.7734C250.164 23.513 250.094 23.2083 250.094 22.8594C250.094 22.526 250.167 22.2109 250.312 21.9141C250.464 21.6172 250.674 21.3542 250.945 21.125C251.221 20.8958 251.552 20.7161 251.938 20.5859C252.323 20.4557 252.753 20.3906 253.227 20.3906C253.904 20.3906 254.482 20.5104 254.961 20.75C255.44 20.9896 255.807 21.3099 256.062 21.7109C256.318 22.1068 256.445 22.5469 256.445 23.0312H255C255 22.7969 254.93 22.5703 254.789 22.3516C254.654 22.1276 254.453 21.9427 254.188 21.7969C253.927 21.651 253.607 21.5781 253.227 21.5781C252.826 21.5781 252.5 21.6406 252.25 21.7656C252.005 21.8854 251.826 22.0391 251.711 22.2266C251.602 22.4141 251.547 22.612 251.547 22.8203C251.547 22.9766 251.573 23.1172 251.625 23.2422C251.682 23.362 251.781 23.474 251.922 23.5781C252.062 23.6771 252.26 23.7708 252.516 23.8594C252.771 23.9479 253.096 24.0365 253.492 24.125C254.185 24.2812 254.755 24.4688 255.203 24.6875C255.651 24.9062 255.984 25.1745 256.203 25.4922C256.422 25.8099 256.531 26.1953 256.531 26.6484C256.531 27.0182 256.453 27.3568 256.297 27.6641C256.146 27.9714 255.924 28.237 255.633 28.4609C255.346 28.6797 255.003 28.8516 254.602 28.9766C254.206 29.0964 253.76 29.1562 253.266 29.1562C252.521 29.1562 251.891 29.0234 251.375 28.7578C250.859 28.4922 250.469 28.1484 250.203 27.7266C249.938 27.3047 249.805 26.8594 249.805 26.3906H251.258C251.279 26.7865 251.393 27.1016 251.602 27.3359C251.81 27.5651 252.065 27.7292 252.367 27.8281C252.669 27.9219 252.969 27.9688 253.266 27.9688C253.661 27.9688 253.992 27.9167 254.258 27.8125C254.529 27.7083 254.734 27.5651 254.875 27.3828C255.016 27.2005 255.086 26.9922 255.086 26.7578Z" fill="#AEAEAE"/>
</svg>
