<svg width="38" height="38" viewBox="0 0 38 38" fill="none" xmlns="http://www.w3.org/2000/svg">
<rect x="0.00012207" width="38" height="38" rx="9.12" fill="#F7F5FF"/>
<path d="M28.9701 25.33C28.9701 25.69 28.8901 26.06 28.7201 26.42C28.5501 26.78 28.3301 27.12 28.0401 27.44C27.5501 27.98 27.0101 28.37 26.4001 28.62C25.8001 28.87 25.1501 29 24.4501 29C23.4301 29 22.3401 28.76 21.1901 28.27C20.0401 27.78 18.8901 27.12 17.7501 26.29C16.6001 25.45 15.5101 24.52 14.4701 23.49C13.4401 22.45 12.5101 21.36 11.6801 20.22C10.8601 19.08 10.2001 17.94 9.72012 16.81C9.24012 15.67 9.00012 14.58 9.00012 13.54C9.00012 12.86 9.12012 12.21 9.36012 11.61C9.60012 11 9.98012 10.44 10.5101 9.94C11.1501 9.31 11.8501 9 12.5901 9C12.8701 9 13.1501 9.06 13.4001 9.18C13.6601 9.3 13.8901 9.48 14.0701 9.74L16.3901 13.01C16.5701 13.26 16.7001 13.49 16.7901 13.71C16.8801 13.92 16.9301 14.13 16.9301 14.32C16.9301 14.56 16.8601 14.8 16.7201 15.03C16.5901 15.26 16.4001 15.5 16.1601 15.74L15.4001 16.53C15.2901 16.64 15.2401 16.77 15.2401 16.93C15.2401 17.01 15.2501 17.08 15.2701 17.16C15.3001 17.24 15.3301 17.3 15.3501 17.36C15.5301 17.69 15.8401 18.12 16.2801 18.64C16.7301 19.16 17.2101 19.69 17.7301 20.22C18.2701 20.75 18.7901 21.24 19.3201 21.69C19.8401 22.13 20.2701 22.43 20.6101 22.61C20.6601 22.63 20.7201 22.66 20.7901 22.69C20.8701 22.72 20.9501 22.73 21.0401 22.73C21.2101 22.73 21.3401 22.67 21.4501 22.56L22.2101 21.81C22.4601 21.56 22.7001 21.37 22.9301 21.25C23.1601 21.11 23.3901 21.04 23.6401 21.04C23.8301 21.04 24.0301 21.08 24.2501 21.17C24.4701 21.26 24.7001 21.39 24.9501 21.56L28.2601 23.91C28.5201 24.09 28.7001 24.3 28.8101 24.55C28.9101 24.8 28.9701 25.05 28.9701 25.33Z" stroke="#6F59DA" stroke-width="1.5" stroke-miterlimit="10"/>
</svg>
