<svg width="18" height="18" viewBox="0 0 18 18" fill="none" xmlns="http://www.w3.org/2000/svg">
<path d="M12.75 7.52925C9.85575 7.52925 7.5 9.88425 7.5 12.7792C7.5 15.6577 9.85575 18 12.75 18C15.6442 18 18 15.645 18 12.75C18 9.8715 15.6442 7.52925 12.75 7.52925ZM12.75 16.5C10.6823 16.5 9 14.8305 9 12.7792C9 10.7115 10.6823 9.02925 12.75 9.02925C14.8177 9.02925 16.5 10.6987 16.5 12.75C16.5 14.8177 14.8177 16.5 12.75 16.5ZM14.0303 12.9697C14.3235 13.263 14.3235 13.737 14.0303 14.0303C13.884 14.1765 13.692 14.25 13.5 14.25C13.308 14.25 13.116 14.1765 12.9697 14.0303L12.2197 13.2803C12.0787 13.1393 12 12.9487 12 12.75V11.25C12 10.836 12.3352 10.5 12.75 10.5C13.1648 10.5 13.5 10.836 13.5 11.25V12.4395L14.0303 12.9697ZM18 5.25V6.75C18 7.164 17.6647 7.5 17.25 7.5C16.8353 7.5 16.5 7.164 16.5 6.75V5.25C16.5 4.0095 15.4905 3 14.25 3H3.75C2.5095 3 1.5 4.0095 1.5 5.25V6H8.25C8.664 6 9 6.336 9 6.75C9 7.164 8.664 7.5 8.25 7.5H1.5V14.25C1.5 15.4905 2.5095 16.5 3.75 16.5H6.75C7.164 16.5 7.5 16.836 7.5 17.25C7.5 17.664 7.164 18 6.75 18H3.75C1.68225 18 0 16.3177 0 14.25V5.25C0 3.18225 1.68225 1.5 3.75 1.5H4.5V0.75C4.5 0.336 4.836 0 5.25 0C5.664 0 6 0.336 6 0.75V1.5H12V0.75C12 0.336 12.3352 0 12.75 0C13.1648 0 13.5 0.336 13.5 0.75V1.5H14.25C16.3177 1.5 18 3.18225 18 5.25Z" fill="black" fill-opacity="0.54"/>
</svg>
