<svg width="32" height="32" viewBox="0 0 32 32" fill="none" xmlns="http://www.w3.org/2000/svg">
<rect width="32" height="32" rx="16" fill="#19A873" fill-opacity="0.3"/>
<mask id="mask0_1024_4032" style="mask-type:alpha" maskUnits="userSpaceOnUse" x="4" y="4" width="24" height="24">
<rect x="4" y="4" width="24" height="24" fill="#D9D9D9"/>
</mask>
<g mask="url(#mask0_1024_4032)">
<path d="M13.8929 19.8929C14.2834 20.2834 14.9166 20.2834 15.3071 19.8929L20.95 14.25C21.3366 13.8634 21.3366 13.2366 20.95 12.85C20.5634 12.4634 19.9366 12.4634 19.55 12.85L15.3071 17.0929C14.9166 17.4834 14.2834 17.4834 13.8929 17.0929L12.45 15.65C12.0634 15.2634 11.4366 15.2634 11.05 15.65C10.6634 16.0366 10.6634 16.6634 11.05 17.05L13.8929 19.8929ZM16 26C14.6167 26 13.3167 25.7373 12.1 25.212C10.8833 24.6873 9.825 23.975 8.925 23.075C8.025 22.175 7.31267 21.1167 6.788 19.9C6.26267 18.6833 6 17.3833 6 16C6 14.6167 6.26267 13.3167 6.788 12.1C7.31267 10.8833 8.025 9.825 8.925 8.925C9.825 8.025 10.8833 7.31233 12.1 6.787C13.3167 6.26233 14.6167 6 16 6C17.3833 6 18.6833 6.26233 19.9 6.787C21.1167 7.31233 22.175 8.025 23.075 8.925C23.975 9.825 24.6873 10.8833 25.212 12.1C25.7373 13.3167 26 14.6167 26 16C26 17.3833 25.7373 18.6833 25.212 19.9C24.6873 21.1167 23.975 22.175 23.075 23.075C22.175 23.975 21.1167 24.6873 19.9 25.212C18.6833 25.7373 17.3833 26 16 26Z" fill="#19A873"/>
</g>
</svg>
