<svg width="19" height="18" viewBox="0 0 19 18" fill="none" xmlns="http://www.w3.org/2000/svg">
<path d="M14.5194 11.0004C13.9523 11.0009 13.3939 11.1393 12.8923 11.4038C12.3907 11.6683 11.9609 12.0508 11.6402 12.5184L6.75841 10.3142C7.10515 9.47691 7.1065 8.53645 6.76216 7.69819L11.6372 5.48269C12.1126 6.17025 12.8187 6.66466 13.6274 6.87622C14.4361 7.08778 15.2938 7.00249 16.045 6.63581C16.7962 6.26913 17.3911 5.64536 17.7218 4.87764C18.0525 4.10991 18.0971 3.24909 17.8474 2.45132C17.5978 1.65354 17.0705 0.971658 16.3612 0.529352C15.6519 0.0870461 14.8076 -0.086385 13.9813 0.0405177C13.1551 0.16742 12.4017 0.586251 11.8578 1.22104C11.314 1.85582 11.0156 2.66452 11.0169 3.50044C11.0201 3.69829 11.0402 3.8955 11.0769 4.08994L5.89441 6.44494C5.39667 5.9786 4.77355 5.66781 4.10159 5.55076C3.42964 5.4337 2.73813 5.51547 2.11202 5.78603C1.48591 6.05658 0.952458 6.50414 0.577211 7.07371C0.201964 7.64328 0.00126293 8.31005 -0.000235686 8.99212C-0.0017343 9.67419 0.196035 10.3418 0.568775 10.9131C0.941516 11.4843 1.47299 11.9342 2.09791 12.2075C2.72283 12.4808 3.41397 12.5656 4.08643 12.4515C4.75889 12.3374 5.38337 12.0293 5.88316 11.5652L11.0792 13.9112C11.0431 14.1054 11.0233 14.3024 11.0199 14.4999C11.0198 15.1923 11.2249 15.8691 11.6095 16.4449C11.9941 17.0206 12.5407 17.4693 13.1803 17.7344C13.8199 17.9994 14.5238 18.0688 15.2028 17.9337C15.8819 17.7987 16.5057 17.4653 16.9952 16.9757C17.4848 16.4862 17.8182 15.8624 17.9532 15.1834C18.0882 14.5043 18.0189 13.8005 17.7538 13.1609C17.4888 12.5212 17.0401 11.9746 16.4643 11.59C15.8886 11.2055 15.2118 11.0003 14.5194 11.0004ZM14.5194 1.50019C14.9151 1.50004 15.3019 1.61722 15.6309 1.83692C15.9599 2.05662 16.2164 2.36897 16.3679 2.73445C16.5194 3.09994 16.5592 3.50215 16.4821 3.89021C16.405 4.27827 16.2145 4.63475 15.9348 4.91456C15.6551 5.19438 15.2987 5.38496 14.9107 5.4622C14.5226 5.53944 14.1204 5.49987 13.7549 5.3485C13.3893 5.19713 13.0769 4.94075 12.8571 4.61179C12.6372 4.28284 12.5199 3.89608 12.5199 3.50044C12.5203 2.97019 12.7311 2.46176 13.1059 2.08675C13.4808 1.71174 13.9892 1.50078 14.5194 1.50019ZM3.51991 11.0004C3.12427 11.0006 2.73747 10.8834 2.40843 10.6637C2.07939 10.444 1.8229 10.1317 1.67139 9.76617C1.51988 9.40068 1.48016 8.99848 1.55726 8.61042C1.63435 8.22236 1.8248 7.86588 2.10451 7.58606C2.38422 7.30625 2.74063 7.11567 3.12866 7.03843C3.51669 6.96118 3.91891 7.00075 4.28445 7.15212C4.65 7.3035 4.96244 7.55987 5.18226 7.88883C5.40208 8.21778 5.51941 8.60454 5.51941 9.00019C5.51882 9.53037 5.30799 10.0387 4.93316 10.4137C4.55833 10.7886 4.0501 10.9996 3.51991 11.0004ZM14.5194 16.5002C14.1238 16.5002 13.7371 16.3829 13.4081 16.1631C13.0792 15.9433 12.8228 15.6309 12.6714 15.2654C12.52 14.8999 12.4804 14.4977 12.5576 14.1097C12.6348 13.7217 12.8253 13.3653 13.105 13.0855C13.3848 12.8058 13.7412 12.6153 14.1292 12.5381C14.5172 12.4609 14.9194 12.5006 15.2849 12.6519C15.6504 12.8033 15.9628 13.0597 16.1826 13.3887C16.4024 13.7176 16.5197 14.1043 16.5197 14.4999C16.5193 15.0303 16.3084 15.5389 15.9334 15.9139C15.5583 16.2889 15.0498 16.4998 14.5194 16.5002Z" fill="black" fill-opacity="0.54"/>
</svg>
