<svg width="18" height="18" viewBox="0 0 18 18" fill="none" xmlns="http://www.w3.org/2000/svg">
<path d="M2.81768e-05 8.98944C-0.00762648 10.9127 1.54532 12.4781 3.46864 12.4857C4.35441 12.4892 5.20825 12.1551 5.85633 11.5513L11.0459 13.8944C11.0099 14.0885 10.9901 14.2851 10.9868 14.4825C10.9807 16.419 12.5456 17.9939 14.4821 18C16.4187 18.0061 17.9935 16.4412 17.9996 14.5047C18.0058 12.5681 16.4409 10.9933 14.5043 10.9871C13.3473 10.9835 12.263 11.5508 11.6063 12.5034L6.73051 10.3018C7.07683 9.46558 7.07816 8.52627 6.73427 7.68903L11.6033 5.47624C12.6997 7.06198 14.874 7.45862 16.4598 6.36221C18.0455 5.2658 18.4421 3.09153 17.3457 1.50579C16.2493 -0.0799575 14.075 -0.476595 12.4892 0.619812C11.5449 1.27278 10.982 2.34832 10.9838 3.49645C10.9869 3.69407 11.007 3.89102 11.0437 4.08523L5.86757 6.43732C4.46519 5.12047 2.26082 5.18982 0.943974 6.5922C0.334516 7.2413 -0.00327246 8.09908 2.81768e-05 8.98944Z" fill="white"/>
</svg>
