<svg width="18" height="17" viewBox="0 0 18 17" fill="none" xmlns="http://www.w3.org/2000/svg">
<path d="M14.25 3.01562H12.75V2.26562C12.75 1.66889 12.5129 1.09659 12.091 0.674635C11.669 0.252678 11.0967 0.015625 10.5 0.015625H2.25C1.65326 0.015625 1.08097 0.252678 0.65901 0.674635C0.237053 1.09659 0 1.66889 0 2.26562V13.5156H1.53075C1.51145 13.6397 1.50118 13.765 1.5 13.8906C1.5 14.5868 1.77656 15.2545 2.26884 15.7468C2.76113 16.2391 3.42881 16.5156 4.125 16.5156C4.82119 16.5156 5.48887 16.2391 5.98116 15.7468C6.47344 15.2545 6.75 14.5868 6.75 13.8906C6.74882 13.765 6.73855 13.6397 6.71925 13.5156H11.2808C11.2615 13.6397 11.2512 13.765 11.25 13.8906C11.25 14.5868 11.5266 15.2545 12.0188 15.7468C12.5111 16.2391 13.1788 16.5156 13.875 16.5156C14.5712 16.5156 15.2389 16.2391 15.7312 15.7468C16.2234 15.2545 16.5 14.5868 16.5 13.8906C16.4988 13.765 16.4885 13.6397 16.4692 13.5156H18V6.76562C17.9988 5.77143 17.6033 4.81829 16.9003 4.11529C16.1973 3.41229 15.2442 3.01682 14.25 3.01562ZM14.25 4.51562C14.8467 4.51562 15.419 4.75268 15.841 5.17463C16.2629 5.59659 16.5 6.16889 16.5 6.76562V7.51562H12.75V4.51562H14.25ZM5.25 13.8906C5.25 14.189 5.13147 14.4751 4.9205 14.6861C4.70952 14.8971 4.42337 15.0156 4.125 15.0156C3.82663 15.0156 3.54048 14.8971 3.3295 14.6861C3.11853 14.4751 3 14.189 3 13.8906C3.00046 13.7624 3.02409 13.6354 3.06975 13.5156H5.18025C5.22591 13.6354 5.24954 13.7624 5.25 13.8906ZM11.25 12.0156H1.5V2.26562C1.5 2.06671 1.57902 1.87595 1.71967 1.73529C1.86032 1.59464 2.05109 1.51562 2.25 1.51562H10.5C10.6989 1.51562 10.8897 1.59464 11.0303 1.73529C11.171 1.87595 11.25 2.06671 11.25 2.26562V12.0156ZM15 13.8906C15 14.189 14.8815 14.4751 14.6705 14.6861C14.4595 14.8971 14.1734 15.0156 13.875 15.0156C13.5766 15.0156 13.2905 14.8971 13.0795 14.6861C12.8685 14.4751 12.75 14.189 12.75 13.8906C12.7503 13.7624 12.774 13.6354 12.8197 13.5156H14.9303C14.976 13.6354 14.9997 13.7624 15 13.8906ZM12.75 12.0156V9.01562H16.5V12.0156H12.75Z" fill="black" fill-opacity="0.54"/>
</svg>
