<svg width="20" height="20" viewBox="0 0 20 20" fill="none" xmlns="http://www.w3.org/2000/svg">
<path fill-rule="evenodd" clip-rule="evenodd" d="M0.25 10C0.25 4.615 4.615 0.25 10 0.25C15.385 0.25 19.75 4.615 19.75 10C19.75 15.385 15.385 19.75 10 19.75C4.615 19.75 0.25 15.385 0.25 10ZM10 6.25C10.1989 6.25 10.3897 6.32902 10.5303 6.46967C10.671 6.61032 10.75 6.80109 10.75 7V10.75C10.75 10.9489 10.671 11.1397 10.5303 11.2803C10.3897 11.421 10.1989 11.5 10 11.5C9.80109 11.5 9.61032 11.421 9.46967 11.2803C9.32902 11.1397 9.25 10.9489 9.25 10.75V7C9.25 6.80109 9.32902 6.61032 9.46967 6.46967C9.61032 6.32902 9.80109 6.25 10 6.25ZM10 14.5C10.1989 14.5 10.3897 14.421 10.5303 14.2803C10.671 14.1397 10.75 13.9489 10.75 13.75C10.75 13.5511 10.671 13.3603 10.5303 13.2197C10.3897 13.079 10.1989 13 10 13C9.80109 13 9.61032 13.079 9.46967 13.2197C9.32902 13.3603 9.25 13.5511 9.25 13.75C9.25 13.9489 9.32902 14.1397 9.46967 14.2803C9.61032 14.421 9.80109 14.5 10 14.5Z" fill="black"/>
</svg>
