<svg width="35" height="34" viewBox="0 0 35 34" fill="none" xmlns="http://www.w3.org/2000/svg">
<ellipse cx="17.49" cy="16.72" rx="17.449" ry="16.72" fill="black" fill-opacity="0.2"/>
<path d="M25.4054 13.5952C24.4411 9.52962 20.7401 7.69922 17.4891 7.69922C17.4891 7.69922 17.4891 7.69922 17.4799 7.69922C14.238 7.69922 10.5278 9.52082 9.56356 13.5864C8.48907 18.1272 11.3911 21.9728 14.0176 24.3928C14.9911 25.2904 16.2401 25.7392 17.4891 25.7392C18.738 25.7392 19.987 25.2904 20.9513 24.3928C23.5778 21.9728 26.4799 18.136 25.4054 13.5952ZM17.4891 18.004C15.8911 18.004 14.5962 16.7632 14.5962 15.232C14.5962 13.7008 15.8911 12.46 17.4891 12.46C19.087 12.46 20.3819 13.7008 20.3819 15.232C20.3819 16.7632 19.087 18.004 17.4891 18.004Z" fill="black"/>
</svg>
