<svg width="223" height="26" viewBox="0 0 223 26" fill="none" xmlns="http://www.w3.org/2000/svg">
<path fill-rule="evenodd" clip-rule="evenodd" d="M0.5 1V25H24.5V1H0.5ZM3.91421 3L12.5 11.5858L21.0858 3H3.91421ZM22.5 4.41421L13.9142 13L22.5 21.5858V4.41421ZM21.0858 23L12.5 14.4142L3.91421 23H21.0858ZM2.5 21.5858L11.0858 13L2.5 4.41421V21.5858Z" fill="#4D5358"/>
<path d="M31.6289 3.9375H34.6055L38.9883 16.4648L43.3711 3.9375H46.3477L40.1836 21H37.793L31.6289 3.9375ZM30.0234 3.9375H32.9883L33.5273 16.1484V21H30.0234V3.9375ZM44.9883 3.9375H47.9648V21H44.4492V16.1484L44.9883 3.9375ZM56.6719 21.2344C55.6875 21.2344 54.8047 21.0781 54.0234 20.7656C53.2422 20.4453 52.5781 20.0039 52.0312 19.4414C51.4922 18.8789 51.0781 18.2266 50.7891 17.4844C50.5 16.7344 50.3555 15.9375 50.3555 15.0938V14.625C50.3555 13.6641 50.4922 12.7852 50.7656 11.9883C51.0391 11.1914 51.4297 10.5 51.9375 9.91406C52.4531 9.32812 53.0781 8.87891 53.8125 8.56641C54.5469 8.24609 55.375 8.08594 56.2969 8.08594C57.1953 8.08594 57.9922 8.23438 58.6875 8.53125C59.3828 8.82812 59.9648 9.25 60.4336 9.79688C60.9102 10.3438 61.2695 11 61.5117 11.7656C61.7539 12.5234 61.875 13.3672 61.875 14.2969V15.7031H51.7969V13.4531H58.5586V13.1953C58.5586 12.7266 58.4727 12.3086 58.3008 11.9414C58.1367 11.5664 57.8867 11.2695 57.5508 11.0508C57.2148 10.832 56.7852 10.7227 56.2617 10.7227C55.8164 10.7227 55.4336 10.8203 55.1133 11.0156C54.793 11.2109 54.5312 11.4844 54.3281 11.8359C54.1328 12.1875 53.9844 12.6016 53.8828 13.0781C53.7891 13.5469 53.7422 14.0625 53.7422 14.625V15.0938C53.7422 15.6016 53.8125 16.0703 53.9531 16.5C54.1016 16.9297 54.3086 17.3008 54.5742 17.6133C54.8477 17.9258 55.1758 18.168 55.5586 18.3398C55.9492 18.5117 56.3906 18.5977 56.8828 18.5977C57.4922 18.5977 58.0586 18.4805 58.582 18.2461C59.1133 18.0039 59.5703 17.6406 59.9531 17.1562L61.5938 18.9375C61.3281 19.3203 60.9648 19.6875 60.5039 20.0391C60.0508 20.3906 59.5039 20.6797 58.8633 20.9062C58.2227 21.125 57.4922 21.2344 56.6719 21.2344ZM70.6406 18.1406V12.4922C70.6406 12.0859 70.5742 11.7383 70.4414 11.4492C70.3086 11.1523 70.1016 10.9219 69.8203 10.7578C69.5469 10.5938 69.1914 10.5117 68.7539 10.5117C68.3789 10.5117 68.0547 10.5781 67.7812 10.7109C67.5078 10.8359 67.2969 11.0195 67.1484 11.2617C67 11.4961 66.9258 11.7734 66.9258 12.0938H63.5508C63.5508 11.5547 63.6758 11.043 63.9258 10.5586C64.1758 10.0742 64.5391 9.64844 65.0156 9.28125C65.4922 8.90625 66.0586 8.61328 66.7148 8.40234C67.3789 8.19141 68.1211 8.08594 68.9414 8.08594C69.9258 8.08594 70.8008 8.25 71.5664 8.57812C72.332 8.90625 72.9336 9.39844 73.3711 10.0547C73.8164 10.7109 74.0391 11.5312 74.0391 12.5156V17.9414C74.0391 18.6367 74.082 19.207 74.168 19.6523C74.2539 20.0898 74.3789 20.4727 74.543 20.8008V21H71.1328C70.9688 20.6562 70.8438 20.2266 70.7578 19.7109C70.6797 19.1875 70.6406 18.6641 70.6406 18.1406ZM71.0859 13.2773L71.1094 15.1875H69.2227C68.7773 15.1875 68.3906 15.2383 68.0625 15.3398C67.7344 15.4414 67.4648 15.5859 67.2539 15.7734C67.043 15.9531 66.8867 16.1641 66.7852 16.4062C66.6914 16.6484 66.6445 16.9141 66.6445 17.2031C66.6445 17.4922 66.7109 17.7539 66.8438 17.9883C66.9766 18.2148 67.168 18.3945 67.418 18.5273C67.668 18.6523 67.9609 18.7148 68.2969 18.7148C68.8047 18.7148 69.2461 18.6133 69.6211 18.4102C69.9961 18.207 70.2852 17.957 70.4883 17.6602C70.6992 17.3633 70.8086 17.082 70.8164 16.8164L71.707 18.2461C71.582 18.5664 71.4102 18.8984 71.1914 19.2422C70.9805 19.5859 70.7109 19.9102 70.3828 20.2148C70.0547 20.5117 69.6602 20.7578 69.1992 20.9531C68.7383 21.1406 68.1914 21.2344 67.5586 21.2344C66.7539 21.2344 66.0234 21.0742 65.3672 20.7539C64.7188 20.4258 64.2031 19.9766 63.8203 19.4062C63.4453 18.8281 63.2578 18.1719 63.2578 17.4375C63.2578 16.7734 63.3828 16.1836 63.6328 15.668C63.8828 15.1523 64.25 14.7188 64.7344 14.3672C65.2266 14.0078 65.8398 13.7383 66.5742 13.5586C67.3086 13.3711 68.1602 13.2773 69.1289 13.2773H71.0859ZM80.2031 3V21H76.8164V3H80.2031ZM90.7852 3.9375H93.7617L98.1445 16.4648L102.527 3.9375H105.504L99.3398 21H96.9492L90.7852 3.9375ZM89.1797 3.9375H92.1445L92.6836 16.1484V21H89.1797V3.9375ZM104.145 3.9375H107.121V21H103.605V16.1484L104.145 3.9375ZM116.836 18.1406V12.4922C116.836 12.0859 116.77 11.7383 116.637 11.4492C116.504 11.1523 116.297 10.9219 116.016 10.7578C115.742 10.5938 115.387 10.5117 114.949 10.5117C114.574 10.5117 114.25 10.5781 113.977 10.7109C113.703 10.8359 113.492 11.0195 113.344 11.2617C113.195 11.4961 113.121 11.7734 113.121 12.0938H109.746C109.746 11.5547 109.871 11.043 110.121 10.5586C110.371 10.0742 110.734 9.64844 111.211 9.28125C111.688 8.90625 112.254 8.61328 112.91 8.40234C113.574 8.19141 114.316 8.08594 115.137 8.08594C116.121 8.08594 116.996 8.25 117.762 8.57812C118.527 8.90625 119.129 9.39844 119.566 10.0547C120.012 10.7109 120.234 11.5312 120.234 12.5156V17.9414C120.234 18.6367 120.277 19.207 120.363 19.6523C120.449 20.0898 120.574 20.4727 120.738 20.8008V21H117.328C117.164 20.6562 117.039 20.2266 116.953 19.7109C116.875 19.1875 116.836 18.6641 116.836 18.1406ZM117.281 13.2773L117.305 15.1875H115.418C114.973 15.1875 114.586 15.2383 114.258 15.3398C113.93 15.4414 113.66 15.5859 113.449 15.7734C113.238 15.9531 113.082 16.1641 112.98 16.4062C112.887 16.6484 112.84 16.9141 112.84 17.2031C112.84 17.4922 112.906 17.7539 113.039 17.9883C113.172 18.2148 113.363 18.3945 113.613 18.5273C113.863 18.6523 114.156 18.7148 114.492 18.7148C115 18.7148 115.441 18.6133 115.816 18.4102C116.191 18.207 116.48 17.957 116.684 17.6602C116.895 17.3633 117.004 17.082 117.012 16.8164L117.902 18.2461C117.777 18.5664 117.605 18.8984 117.387 19.2422C117.176 19.5859 116.906 19.9102 116.578 20.2148C116.25 20.5117 115.855 20.7578 115.395 20.9531C114.934 21.1406 114.387 21.2344 113.754 21.2344C112.949 21.2344 112.219 21.0742 111.562 20.7539C110.914 20.4258 110.398 19.9766 110.016 19.4062C109.641 18.8281 109.453 18.1719 109.453 17.4375C109.453 16.7734 109.578 16.1836 109.828 15.668C110.078 15.1523 110.445 14.7188 110.93 14.3672C111.422 14.0078 112.035 13.7383 112.77 13.5586C113.504 13.3711 114.355 13.2773 115.324 13.2773H117.281ZM129.691 17.4961C129.691 17.2539 129.621 17.0352 129.48 16.8398C129.34 16.6445 129.078 16.4648 128.695 16.3008C128.32 16.1289 127.777 15.9727 127.066 15.832C126.426 15.6914 125.828 15.5156 125.273 15.3047C124.727 15.0859 124.25 14.8242 123.844 14.5195C123.445 14.2148 123.133 13.8555 122.906 13.4414C122.68 13.0195 122.566 12.5391 122.566 12C122.566 11.4688 122.68 10.9688 122.906 10.5C123.141 10.0312 123.473 9.61719 123.902 9.25781C124.34 8.89062 124.871 8.60547 125.496 8.40234C126.129 8.19141 126.84 8.08594 127.629 8.08594C128.73 8.08594 129.676 8.26172 130.465 8.61328C131.262 8.96484 131.871 9.44922 132.293 10.0664C132.723 10.6758 132.938 11.3711 132.938 12.1523H129.562C129.562 11.8242 129.492 11.5312 129.352 11.2734C129.219 11.0078 129.008 10.8008 128.719 10.6523C128.438 10.4961 128.07 10.418 127.617 10.418C127.242 10.418 126.918 10.4844 126.645 10.6172C126.371 10.7422 126.16 10.9141 126.012 11.1328C125.871 11.3438 125.801 11.5781 125.801 11.8359C125.801 12.0312 125.84 12.207 125.918 12.3633C126.004 12.5117 126.141 12.6484 126.328 12.7734C126.516 12.8984 126.758 13.0156 127.055 13.125C127.359 13.2266 127.734 13.3203 128.18 13.4062C129.094 13.5938 129.91 13.8398 130.629 14.1445C131.348 14.4414 131.918 14.8477 132.34 15.3633C132.762 15.8711 132.973 16.5391 132.973 17.3672C132.973 17.9297 132.848 18.4453 132.598 18.9141C132.348 19.3828 131.988 19.793 131.52 20.1445C131.051 20.4883 130.488 20.7578 129.832 20.9531C129.184 21.1406 128.453 21.2344 127.641 21.2344C126.461 21.2344 125.461 21.0234 124.641 20.6016C123.828 20.1797 123.211 19.6445 122.789 18.9961C122.375 18.3398 122.168 17.668 122.168 16.9805H125.367C125.383 17.4414 125.5 17.8125 125.719 18.0938C125.945 18.375 126.23 18.5781 126.574 18.7031C126.926 18.8281 127.305 18.8906 127.711 18.8906C128.148 18.8906 128.512 18.832 128.801 18.7148C129.09 18.5898 129.309 18.4258 129.457 18.2227C129.613 18.0117 129.691 17.7695 129.691 17.4961ZM141.375 8.32031V10.7109H133.992V8.32031H141.375ZM135.82 5.19141H139.195V17.1797C139.195 17.5469 139.242 17.8281 139.336 18.0234C139.438 18.2188 139.586 18.3555 139.781 18.4336C139.977 18.5039 140.223 18.5391 140.52 18.5391C140.73 18.5391 140.918 18.5312 141.082 18.5156C141.254 18.4922 141.398 18.4688 141.516 18.4453L141.527 20.9297C141.238 21.0234 140.926 21.0977 140.59 21.1523C140.254 21.207 139.883 21.2344 139.477 21.2344C138.734 21.2344 138.086 21.1133 137.531 20.8711C136.984 20.6211 136.562 20.2227 136.266 19.6758C135.969 19.1289 135.82 18.4102 135.82 17.5195V5.19141ZM149.133 21.2344C148.148 21.2344 147.266 21.0781 146.484 20.7656C145.703 20.4453 145.039 20.0039 144.492 19.4414C143.953 18.8789 143.539 18.2266 143.25 17.4844C142.961 16.7344 142.816 15.9375 142.816 15.0938V14.625C142.816 13.6641 142.953 12.7852 143.227 11.9883C143.5 11.1914 143.891 10.5 144.398 9.91406C144.914 9.32812 145.539 8.87891 146.273 8.56641C147.008 8.24609 147.836 8.08594 148.758 8.08594C149.656 8.08594 150.453 8.23438 151.148 8.53125C151.844 8.82812 152.426 9.25 152.895 9.79688C153.371 10.3438 153.73 11 153.973 11.7656C154.215 12.5234 154.336 13.3672 154.336 14.2969V15.7031H144.258V13.4531H151.02V13.1953C151.02 12.7266 150.934 12.3086 150.762 11.9414C150.598 11.5664 150.348 11.2695 150.012 11.0508C149.676 10.832 149.246 10.7227 148.723 10.7227C148.277 10.7227 147.895 10.8203 147.574 11.0156C147.254 11.2109 146.992 11.4844 146.789 11.8359C146.594 12.1875 146.445 12.6016 146.344 13.0781C146.25 13.5469 146.203 14.0625 146.203 14.625V15.0938C146.203 15.6016 146.273 16.0703 146.414 16.5C146.562 16.9297 146.77 17.3008 147.035 17.6133C147.309 17.9258 147.637 18.168 148.02 18.3398C148.41 18.5117 148.852 18.5977 149.344 18.5977C149.953 18.5977 150.52 18.4805 151.043 18.2461C151.574 18.0039 152.031 17.6406 152.414 17.1562L154.055 18.9375C153.789 19.3203 153.426 19.6875 152.965 20.0391C152.512 20.3906 151.965 20.6797 151.324 20.9062C150.684 21.125 149.953 21.2344 149.133 21.2344ZM159.633 11.0859V21H156.258V8.32031H159.434L159.633 11.0859ZM163.453 8.23828L163.395 11.3672C163.23 11.3438 163.031 11.3242 162.797 11.3086C162.57 11.2852 162.363 11.2734 162.176 11.2734C161.699 11.2734 161.285 11.3359 160.934 11.4609C160.59 11.5781 160.301 11.7539 160.066 11.9883C159.84 12.2227 159.668 12.5078 159.551 12.8438C159.441 13.1797 159.379 13.5625 159.363 13.9922L158.684 13.7812C158.684 12.9609 158.766 12.207 158.93 11.5195C159.094 10.8242 159.332 10.2188 159.645 9.70312C159.965 9.1875 160.355 8.78906 160.816 8.50781C161.277 8.22656 161.805 8.08594 162.398 8.08594C162.586 8.08594 162.777 8.10156 162.973 8.13281C163.168 8.15625 163.328 8.19141 163.453 8.23828ZM181.125 15.3398H184.629C184.559 16.4883 184.242 17.5078 183.68 18.3984C183.125 19.2891 182.348 19.9844 181.348 20.4844C180.355 20.9844 179.16 21.2344 177.762 21.2344C176.668 21.2344 175.688 21.0469 174.82 20.6719C173.953 20.2891 173.211 19.7422 172.594 19.0312C171.984 18.3203 171.52 17.4609 171.199 16.4531C170.879 15.4453 170.719 14.3164 170.719 13.0664V11.8828C170.719 10.6328 170.883 9.50391 171.211 8.49609C171.547 7.48047 172.023 6.61719 172.641 5.90625C173.266 5.19531 174.012 4.64844 174.879 4.26562C175.746 3.88281 176.715 3.69141 177.785 3.69141C179.207 3.69141 180.406 3.94922 181.383 4.46484C182.367 4.98047 183.129 5.69141 183.668 6.59766C184.215 7.50391 184.543 8.53516 184.652 9.69141H181.137C181.098 9.00391 180.961 8.42188 180.727 7.94531C180.492 7.46094 180.137 7.09766 179.66 6.85547C179.191 6.60547 178.566 6.48047 177.785 6.48047C177.199 6.48047 176.688 6.58984 176.25 6.80859C175.812 7.02734 175.445 7.35938 175.148 7.80469C174.852 8.25 174.629 8.8125 174.48 9.49219C174.34 10.1641 174.27 10.9531 174.27 11.8594V13.0664C174.27 13.9492 174.336 14.7266 174.469 15.3984C174.602 16.0625 174.805 16.625 175.078 17.0859C175.359 17.5391 175.719 17.8828 176.156 18.1172C176.602 18.3438 177.137 18.457 177.762 18.457C178.496 18.457 179.102 18.3398 179.578 18.1055C180.055 17.8711 180.418 17.5234 180.668 17.0625C180.926 16.6016 181.078 16.0273 181.125 15.3398ZM186.938 3.9375H193.301C194.605 3.9375 195.727 4.13281 196.664 4.52344C197.609 4.91406 198.336 5.49219 198.844 6.25781C199.352 7.02344 199.605 7.96484 199.605 9.08203C199.605 9.99609 199.449 10.7812 199.137 11.4375C198.832 12.0859 198.398 12.6289 197.836 13.0664C197.281 13.4961 196.629 13.8398 195.879 14.0977L194.766 14.6836H189.234L189.211 11.9414H193.324C193.941 11.9414 194.453 11.832 194.859 11.6133C195.266 11.3945 195.57 11.0898 195.773 10.6992C195.984 10.3086 196.09 9.85547 196.09 9.33984C196.09 8.79297 195.988 8.32031 195.785 7.92188C195.582 7.52344 195.273 7.21875 194.859 7.00781C194.445 6.79688 193.926 6.69141 193.301 6.69141H190.453V21H186.938V3.9375ZM196.477 21L192.586 13.3945L196.301 13.3711L200.238 20.8359V21H196.477ZM203.918 3.9375H206.895L211.277 16.4648L215.66 3.9375H218.637L212.473 21H210.082L203.918 3.9375ZM202.312 3.9375H205.277L205.816 16.1484V21H202.312V3.9375ZM217.277 3.9375H220.254V21H216.738V16.1484L217.277 3.9375Z" fill="#697077"/>
</svg>
